<svg width="226" height="22" viewBox="0 0 226 22" fill="none" xmlns="http://www.w3.org/2000/svg">
<path d="M21.4802 7.00454H14.4757V0H7.0101V7.00454H0V14.4812H7.0101V21.4802H14.4757V14.4812H21.4802V7.00454Z" fill="#75AC40"/>
<path d="M38.1888 11.3123C38.4061 11.3844 38.609 11.494 38.7885 11.6361C38.9427 11.7639 39.0797 11.911 39.1963 12.0739C39.3093 12.2358 39.402 12.411 39.4721 12.5956C39.5463 12.7921 39.6104 12.9923 39.664 13.1953L40.5756 16.8354H37.817L37.0254 13.6631C36.9613 13.2969 36.7853 12.9597 36.5217 12.6976C36.2513 12.4788 35.9095 12.3677 35.5622 12.3857H34.6806V16.8234H32V6.26892H34.6806V10.2389H35.4662C35.6132 10.2401 35.7599 10.226 35.904 10.1969C36.0486 10.1612 36.185 10.0981 36.3058 10.011C36.4413 9.90337 36.5552 9.77111 36.6416 9.62118C36.7561 9.41633 36.8409 9.19624 36.8935 8.96752L37.5411 6.28091H40.2037L39.4421 9.42928C39.3429 9.8121 39.183 10.1765 38.9684 10.5087C38.779 10.8137 38.5092 11.0606 38.1888 11.2224V11.3123Z" fill="#75AC40"/>
<path d="M48.0903 16.8234V8.28978H46.2913L46.2613 9.18332C46.2013 10.3827 46.1293 11.4381 46.0334 12.3677C45.9564 13.1893 45.7667 13.9965 45.4697 14.7664C45.2141 15.4129 44.802 15.9857 44.2703 16.4336C43.6469 16.9128 42.9232 17.2449 42.1534 17.4051L41.5537 15.3181C41.9962 15.1496 42.4031 14.8994 42.7531 14.5805C43.0341 14.2978 43.2402 13.9495 43.3528 13.567C43.502 13.0655 43.5926 12.5483 43.6226 12.0258C43.6706 11.4262 43.7186 10.6286 43.7726 9.68706L43.9824 6.23285H50.7949V16.8234H48.0903Z" fill="#75AC40"/>
<path d="M61.9256 6.25092V16.8234H59.275V10.6706H59.209L57.0562 14.5686L55.7848 16.8234H53.0742V6.25092H55.7788C55.7788 7.31237 55.7788 8.37381 55.7788 9.43526C55.7788 10.4967 55.7788 11.5582 55.7788 12.6316H55.8328C55.9287 12.4697 56.0487 12.2598 56.1926 11.9959C56.3365 11.7321 56.4984 11.4502 56.6664 11.1324L59.299 6.25092H61.9256Z" fill="#75AC40"/>
<path d="M70.0749 16.8234V12.3737H66.9685C66.9685 13.1174 66.9685 13.867 66.9685 14.6046C66.9685 15.3422 66.9685 16.0858 66.9685 16.8234H64.252V6.25092H66.9865C66.9865 6.92856 66.9865 7.59422 66.9865 8.25987C66.9865 8.92553 66.9865 9.59718 66.9865 10.2688H70.0929V6.25092H72.8395V16.8234H70.0749Z" fill="#75AC40"/>
<path d="M83.9813 6.25092V16.8234H81.3307V10.6706H81.2587L79.1058 14.5686L77.8345 16.8234H75.1299V6.25092H77.8345C77.8345 7.31237 77.8345 8.37381 77.8345 9.43526C77.8345 10.4967 77.8345 11.5582 77.8345 12.6316H77.8885L78.2483 11.9959C78.3922 11.7401 78.5481 11.4522 78.716 11.1324L81.3547 6.25092H83.9813Z" fill="#75AC40"/>
<path d="M94.4629 16.8234H91.7523V12.8655C91.4118 12.9414 91.0675 12.9995 90.7209 13.0394C90.3729 13.0858 90.0224 13.1099 89.6714 13.1114C89.2121 13.1118 88.754 13.0656 88.3041 12.9734C87.877 12.8895 87.4699 12.7246 87.1047 12.4877C86.7562 12.257 86.4699 11.9439 86.2712 11.5762C86.0503 11.1274 85.9452 10.6306 85.9653 10.1309V6.25092H88.6999V9.5672C88.6743 9.76209 88.6971 9.96027 88.7661 10.1443C88.8351 10.3284 88.9483 10.4926 89.0957 10.6226C89.4009 10.8296 89.7648 10.9326 90.1332 10.9165C90.4048 10.9153 90.6758 10.8892 90.9427 10.8385C91.2112 10.7924 91.4758 10.7263 91.7343 10.6406V6.25092H94.4449L94.4629 16.8234Z" fill="#75AC40"/>
<path d="M96.7539 16.8234V6.23285H103.908V8.28978H99.5005V10.2987H103.189V12.3317H99.5005V14.7304H104.088V16.8354L96.7539 16.8234Z" fill="#75AC40"/>
<path d="M110.727 6.00506C111.181 6.00349 111.635 6.04161 112.083 6.119C112.518 6.19421 112.948 6.30451 113.366 6.44883L113.036 8.6317C112.695 8.54065 112.349 8.47254 111.999 8.4278C111.702 8.39207 111.404 8.37205 111.105 8.36783C110.758 8.36247 110.413 8.41725 110.086 8.52975C109.788 8.63522 109.523 8.81723 109.318 9.05748C109.09 9.33736 108.925 9.66236 108.832 10.011C108.707 10.4762 108.649 10.9567 108.658 11.4382C108.649 11.9402 108.699 12.4414 108.808 12.9315C108.888 13.2855 109.046 13.6174 109.27 13.903C109.481 14.1489 109.754 14.3333 110.062 14.4367C110.424 14.5492 110.803 14.6019 111.183 14.5926H111.615L112.214 14.5206L112.814 14.4187C113.017 14.3899 113.217 14.3478 113.414 14.2928L113.828 16.3797C113.317 16.5839 112.786 16.7346 112.244 16.8294C111.697 16.9339 111.141 16.9881 110.583 16.9914C109.761 17.026 108.942 16.8764 108.185 16.5536C107.6 16.2898 107.095 15.876 106.721 15.3542C106.353 14.8417 106.098 14.2572 105.972 13.6391C105.832 12.9585 105.763 12.265 105.768 11.5702C105.769 10.9007 105.841 10.2333 105.984 9.57921C106.125 8.93281 106.394 8.32117 106.775 7.78014C107.172 7.23508 107.692 6.79129 108.292 6.48481C109.054 6.13275 109.889 5.96824 110.727 6.00506Z" fill="#75AC40"/>
<path d="M121.72 11.3123C121.937 11.3851 122.139 11.4946 122.319 11.6361C122.472 11.764 122.607 11.9112 122.721 12.0739C122.836 12.2355 122.931 12.4107 123.003 12.5956C123.077 12.7921 123.141 12.9923 123.195 13.1953L124.106 16.8354H121.342L120.556 13.6751C120.492 13.3089 120.316 12.9716 120.052 12.7096C119.782 12.4918 119.44 12.3809 119.093 12.3977H118.223V16.8354H115.549V6.26892H118.223V10.2389H119.027C119.174 10.2401 119.321 10.226 119.465 10.1969C119.608 10.1611 119.742 10.0979 119.861 10.011C120 9.90529 120.116 9.77273 120.202 9.62118C120.315 9.41597 120.398 9.1959 120.448 8.96752L121.096 6.28091H123.753L122.991 9.42928C122.892 9.81329 122.73 10.1781 122.511 10.5087C122.324 10.8151 122.053 11.0624 121.732 11.2224L121.72 11.3123Z" fill="#75AC40"/>
<path d="M134.606 6.25092V16.8234H131.956V10.6706H131.884L129.731 14.5686L128.459 16.8234H125.755V6.25092H128.459C128.459 7.31237 128.459 8.37381 128.459 9.43526C128.459 10.4967 128.459 11.5582 128.459 12.6316H128.513L128.873 11.9959C129.017 11.7381 129.179 11.4502 129.341 11.1324L131.98 6.25092H134.606Z" fill="#75AC40"/>
<path d="M143.033 16.8234V19.63H140.946V14.7965L141.924 14.7485C142.218 14.3875 142.455 13.9829 142.625 13.5491C142.812 13.0915 142.957 12.6178 143.057 12.1339C143.173 11.5996 143.257 11.0589 143.309 10.5147C143.363 9.91502 143.411 9.31533 143.459 8.71564L143.627 6.22693H150.403V14.7305L151.411 14.7785V19.612H149.33V16.8234H143.033ZM145.846 9.16541C145.792 9.84305 145.738 10.4547 145.69 11.0005C145.642 11.5462 145.57 12.0439 145.486 12.4937C145.415 12.9025 145.306 13.304 145.162 13.6931C145.027 14.0627 144.841 14.4119 144.61 14.7305H147.687V8.25987H145.888L145.846 9.16541Z" fill="#75AC40"/>
<path d="M162.473 11.4982C162.48 12.2389 162.377 12.9765 162.167 13.687C161.984 14.3186 161.68 14.909 161.274 15.4261C160.873 15.9217 160.362 16.3161 159.781 16.5775C159.127 16.8646 158.419 17.0058 157.706 16.9913C156.982 17.0077 156.263 16.8729 155.595 16.5955C155.013 16.3428 154.501 15.9541 154.102 15.4621C153.692 14.9507 153.392 14.3608 153.22 13.729C153.021 13.0085 152.924 12.2636 152.932 11.5162C152.924 10.7829 153.018 10.0521 153.214 9.3453C153.383 8.70973 153.681 8.11574 154.09 7.6002C154.492 7.10457 155.003 6.70848 155.583 6.4428C156.945 5.88332 158.473 5.88332 159.835 6.4428C160.413 6.7087 160.922 7.10484 161.322 7.6002C161.723 8.11515 162.018 8.70407 162.191 9.3333C162.384 10.0386 162.479 10.7671 162.473 11.4982ZM159.559 11.4982C159.561 11.0672 159.535 10.6365 159.481 10.2088C159.441 9.83697 159.346 9.47312 159.199 9.12941C159.075 8.8406 158.881 8.58712 158.635 8.39179C158.364 8.20065 158.037 8.10374 157.706 8.11594C157.368 8.10374 157.036 8.20046 156.758 8.39179C156.493 8.58437 156.286 8.84563 156.159 9.1474C156.013 9.49678 155.914 9.86373 155.865 10.2388C155.811 10.6624 155.785 11.0891 155.787 11.5162C155.783 11.9875 155.814 12.4584 155.877 12.9254C155.921 13.2876 156.024 13.64 156.182 13.9689C156.322 14.2351 156.529 14.4604 156.782 14.6226C157.06 14.7848 157.378 14.8639 157.7 14.8504C158.012 14.8644 158.321 14.7783 158.581 14.6046C158.827 14.4298 159.023 14.1942 159.151 13.9209C159.314 13.5871 159.419 13.2283 159.463 12.8595C159.527 12.4106 159.559 11.9577 159.559 11.5042V11.4982Z" fill="#75AC40"/>
<path d="M170.666 11.3123C170.883 11.3858 171.086 11.4953 171.266 11.6361C171.42 11.7639 171.557 11.911 171.674 12.0739C171.785 12.2372 171.877 12.4121 171.95 12.5956C172.024 12.7921 172.088 12.9923 172.142 13.1953L173.053 16.8354H170.289L169.503 13.6751C169.439 13.3089 169.263 12.9716 168.999 12.7096C168.729 12.4908 168.387 12.3797 168.04 12.3977H167.158V16.8354H164.478V6.26892H167.158V10.2389H167.956C168.103 10.2401 168.249 10.226 168.394 10.1969C168.536 10.1611 168.671 10.0979 168.789 10.011C168.928 9.90529 169.044 9.77273 169.131 9.62118C169.246 9.41714 169.329 9.19669 169.377 8.96752L170.031 6.28091H172.681L171.92 9.42928C171.82 9.8121 171.661 10.1765 171.446 10.5087C171.257 10.8137 170.987 11.0606 170.666 11.2224V11.3123Z" fill="#75AC40"/>
<path d="M180.429 14.6585H177.167L176.567 16.8234H173.887L177.215 6.23285H180.639L183.8 16.8234H181.011L180.429 14.6585ZM178.792 8.27779L178.3 10.5326L177.737 12.6855H179.914L179.35 10.4607L178.894 8.26579L178.792 8.27779Z" fill="#75AC40"/>
<path d="M188.657 6.00507C189.128 6.00461 189.598 6.05081 190.06 6.143C190.486 6.22084 190.893 6.37962 191.259 6.61075C191.597 6.83116 191.877 7.12936 192.075 7.4803C192.287 7.89133 192.39 8.34956 192.375 8.81161C192.373 9.01319 192.351 9.21406 192.309 9.4113C192.257 9.6194 192.18 9.82066 192.081 10.011C191.971 10.2135 191.838 10.4026 191.685 10.5747C191.524 10.76 191.333 10.918 191.121 11.0425C191.121 11.0425 191.121 11.0425 191.121 11.0784C191.378 11.175 191.614 11.3195 191.817 11.5042C192.005 11.6789 192.164 11.8811 192.291 12.1039C192.41 12.31 192.499 12.5322 192.555 12.7636C192.611 12.987 192.64 13.2167 192.639 13.4472C192.651 13.963 192.542 14.4745 192.321 14.9404C192.115 15.3707 191.811 15.7466 191.433 16.0379C191.023 16.3494 190.557 16.5795 190.06 16.7155C189.488 16.8744 188.896 16.9511 188.303 16.9434C188.117 16.9434 187.883 16.9434 187.583 16.9434C187.283 16.9434 186.984 16.8894 186.642 16.8355C186.296 16.7845 185.954 16.7144 185.616 16.6256C185.289 16.5382 184.973 16.4135 184.675 16.2538C184.771 15.9299 184.867 15.6001 184.957 15.2823C185.047 14.9644 185.131 14.6406 185.227 14.3228C185.692 14.4848 186.169 14.6092 186.654 14.6946C187.061 14.7705 187.475 14.8107 187.889 14.8145C188.393 14.8564 188.897 14.7253 189.316 14.4427C189.468 14.3134 189.587 14.1509 189.665 13.9678C189.743 13.7846 189.778 13.5859 189.766 13.3872C189.778 13.2246 189.749 13.0616 189.682 12.913C189.615 12.7643 189.512 12.6347 189.382 12.5357C189.077 12.3301 188.713 12.2291 188.345 12.2478H187.092V10.4488H188.165C188.37 10.4554 188.575 10.4187 188.765 10.3408C188.92 10.2788 189.061 10.1848 189.178 10.065C189.284 9.95833 189.368 9.832 189.424 9.69316C189.481 9.56887 189.509 9.43382 189.508 9.29736C189.519 9.14797 189.493 8.99828 189.432 8.86134C189.371 8.7244 189.278 8.60439 189.16 8.51177C188.796 8.30546 188.378 8.21548 187.961 8.2539C187.763 8.2539 187.559 8.2539 187.361 8.2539C187.164 8.2539 186.924 8.30188 186.708 8.33786C186.506 8.37215 186.306 8.41618 186.108 8.46979C185.91 8.51777 185.736 8.57174 185.592 8.61971L185.394 7.66621C185.334 7.35437 185.263 7.06652 185.191 6.7187C185.433 6.61907 185.682 6.53298 185.934 6.46083C186.21 6.37688 186.504 6.30491 186.804 6.23895C187.115 6.17097 187.429 6.11893 187.745 6.08303C188.047 6.04104 188.352 6.01502 188.657 6.00507Z" fill="#75AC40"/>
<path d="M200.435 14.6585H197.179L196.579 16.8234H193.898L197.227 6.23285H200.651L203.811 16.8234H201.023L200.435 14.6585ZM198.822 8.27779L198.312 10.5326L197.742 12.6855H199.925L199.362 10.4607L198.906 8.26579L198.822 8.27779Z" fill="#75AC40"/>
<path d="M211.098 16.8234V12.3737H207.991C207.991 13.1174 207.991 13.867 207.991 14.6046C207.991 15.3422 207.991 16.0858 207.991 16.8234H205.257V6.25092H207.991C207.991 6.92856 207.991 7.59422 207.991 8.25987C207.991 8.92553 207.991 9.59718 207.991 10.2688H211.098V6.25092H213.844V16.8234H211.098Z" fill="#75AC40"/>
<path d="M225.431 11.4983C225.44 12.2387 225.339 12.9763 225.131 13.6872C224.946 14.3191 224.64 14.9095 224.232 15.4263C223.831 15.9218 223.32 16.3162 222.739 16.5777C222.087 16.8648 221.381 17.006 220.67 16.9915C219.946 17.0084 219.227 16.8736 218.559 16.5957C217.977 16.3429 217.465 15.9542 217.066 15.4623C216.657 14.9508 216.357 14.361 216.184 13.7292C215.98 13.0095 215.881 12.2642 215.89 11.5163C215.885 10.7832 215.98 10.0529 216.172 9.34544C216.345 8.7103 216.645 8.11673 217.054 7.60034C217.455 7.10681 217.964 6.71104 218.541 6.44294C219.905 5.88311 221.435 5.88311 222.799 6.44294C223.375 6.70888 223.882 7.10508 224.28 7.60034C224.683 8.11391 224.979 8.70329 225.149 9.33344C225.345 10.0382 225.44 10.767 225.431 11.4983ZM222.523 11.4983C222.522 11.0674 222.496 10.6369 222.445 10.209C222.402 9.83764 222.308 9.4742 222.163 9.12955C222.037 8.84034 221.841 8.5869 221.593 8.39193C221.324 8.20042 221 8.10341 220.67 8.11607C220.331 8.10386 219.996 8.20053 219.716 8.39193C219.453 8.58644 219.246 8.84714 219.117 9.14754C218.971 9.4963 218.874 9.8636 218.829 10.239C218.773 10.6624 218.745 11.0891 218.745 11.5163C218.747 11.99 218.783 12.463 218.853 12.9316C218.896 13.2947 219.002 13.6476 219.164 13.975C219.3 14.244 219.508 14.4701 219.764 14.6287C220.042 14.7916 220.36 14.8707 220.682 14.8566C220.992 14.8697 221.299 14.7836 221.557 14.6107C221.812 14.4379 222.019 14.2025 222.157 13.9271C222.317 13.5922 222.422 13.2338 222.469 12.8656C222.519 12.4137 222.537 11.9588 222.523 11.5043V11.4983Z" fill="#75AC40"/>
</svg>
