<svg width="10" height="19" viewBox="0 0 10 19" fill="none" xmlns="http://www.w3.org/2000/svg">
<path d="M9.64368 0.751688L7.37432 0.748047C4.82478 0.748047 3.17715 2.43846 3.17715 5.05482V7.04053H0.895409C0.69824 7.04053 0.538574 7.20038 0.538574 7.39755V10.2746C0.538574 10.4718 0.698422 10.6315 0.895409 10.6315H3.17715V17.8912C3.17715 18.0884 3.33681 18.248 3.53398 18.248H6.511C6.70817 18.248 6.86783 18.0882 6.86783 17.8912V10.6315H9.53572C9.73289 10.6315 9.89255 10.4718 9.89255 10.2746L9.89364 7.39755C9.89364 7.30288 9.85596 7.21221 9.78914 7.14522C9.72233 7.07822 9.6313 7.04053 9.53663 7.04053H6.86783V5.35722C6.86783 4.54815 7.06063 4.13743 8.11457 4.13743L9.64331 4.13688C9.8403 4.13688 9.99997 3.97703 9.99997 3.78005V1.10852C9.99997 0.911717 9.84048 0.752052 9.64368 0.751688Z" fill="#1B262D"/>
</svg>
