<svg width="20" height="11" viewBox="0 0 20 11" fill="none" xmlns="http://www.w3.org/2000/svg">
<path fill-rule="evenodd" clip-rule="evenodd" d="M17.0385 6.97559C17.6751 7.59709 18.347 8.18183 18.9179 8.86601C19.1701 9.17004 19.4089 9.48379 19.5915 9.83662C19.8504 10.3382 19.6159 10.8902 19.1662 10.9201L16.3705 10.9188C15.6494 10.9787 15.0742 10.6884 14.5905 10.1954C14.2035 9.80112 13.845 9.38152 13.4728 8.97395C13.3202 8.80737 13.1605 8.65062 12.9697 8.52673C12.5881 8.279 12.2568 8.35485 12.0387 8.75289C11.8166 9.15775 11.7662 9.60604 11.7444 10.0572C11.7144 10.7156 11.5154 10.8886 10.8542 10.9188C9.44092 10.9854 8.09969 10.7716 6.85373 10.0587C5.75524 9.43019 4.90342 8.54293 4.16199 7.53846C2.71843 5.58253 1.61295 3.43329 0.619379 1.22384C0.395735 0.726049 0.559291 0.458836 1.10853 0.449379C2.02057 0.431661 2.93249 0.432922 3.8456 0.448118C4.21628 0.45354 4.46168 0.66615 4.60481 1.01634C5.09825 2.22964 5.70203 3.38399 6.45991 4.45397C6.66174 4.73884 6.86754 5.02371 7.1606 5.22421C7.48481 5.44622 7.73166 5.37263 7.88418 5.01148C7.98097 4.78247 8.02334 4.53581 8.04515 4.29054C8.11741 3.44672 8.12693 2.60436 8.0002 1.7635C7.92239 1.23872 7.6268 0.898999 7.10316 0.799693C6.83595 0.749063 6.87573 0.649631 7.00512 0.497109C7.22983 0.234058 7.44118 0.0703125 7.86249 0.0703125H11.0221C11.5195 0.168484 11.6299 0.391939 11.698 0.892442L11.7008 4.40208C11.6953 4.59584 11.7975 5.17081 12.1465 5.29905C12.4258 5.39035 12.61 5.1669 12.7776 4.98979C13.534 4.18689 14.074 3.23802 14.5563 2.25549C14.7704 1.82346 14.9544 1.37479 15.1328 0.92649C15.2649 0.59383 15.4723 0.430148 15.847 0.437399L18.8879 0.44011C18.9781 0.44011 19.0693 0.441434 19.1567 0.456377C19.6691 0.543704 19.8095 0.764132 19.6512 1.26451C19.4019 2.04956 18.9167 2.70379 18.4423 3.36104C17.9352 4.06274 17.3928 4.74042 16.8899 5.44628C16.4279 6.09086 16.4646 6.41576 17.0385 6.97559Z" fill="#1B262D"/>
</svg>
