<svg width="20" height="18" viewBox="0 0 20 18" fill="none" xmlns="http://www.w3.org/2000/svg">
<path fill-rule="evenodd" clip-rule="evenodd" d="M0 0.85C0 0.380558 0.380558 0 0.85 0H2.85C3.23331 0 3.56919 0.256548 3.67005 0.62635L4.32877 3.04167L18.9059 4.00184C19.3527 4.03127 19.7 4.40225 19.7 4.85V10.85C19.7 11.2942 19.358 11.6634 18.9152 11.6975L5.91519 12.6975C5.50868 12.7288 5.13723 12.467 5.02995 12.0737L2.84813 4.07365L2.20077 1.7H0.85C0.380558 1.7 0 1.31944 0 0.85ZM4.80191 4.77652L6.48522 10.9486L18 10.0629V5.64585L4.80191 4.77652ZM9.85 15.85C9.85 16.9546 8.95457 17.85 7.85 17.85C6.74543 17.85 5.85 16.9546 5.85 15.85C5.85 14.7454 6.74543 13.85 7.85 13.85C8.95457 13.85 9.85 14.7454 9.85 15.85ZM15.85 17.85C16.9546 17.85 17.85 16.9546 17.85 15.85C17.85 14.7454 16.9546 13.85 15.85 13.85C14.7454 13.85 13.85 14.7454 13.85 15.85C13.85 16.9546 14.7454 17.85 15.85 17.85Z" fill="#1B262D"/>
</svg>
