<svg width="25" height="17" viewBox="0 0 25 17" fill="none" xmlns="http://www.w3.org/2000/svg">
<path d="M23.6939 2.66009C23.4151 1.61992 22.5979 0.799955 21.5617 0.519867C19.6685 0 12.0959 0 12.0959 0C12.0959 0 4.52352 0 2.63039 0.500157C1.61405 0.779948 0.776979 1.62006 0.4982 2.66009C0 4.55995 0 8.5 0 8.5C0 8.5 0 12.4599 0.4982 14.3399C0.777274 15.3799 1.59412 16.1999 2.63053 16.48C4.54345 17 12.0962 17 12.0962 17C12.0962 17 19.6685 17 21.5617 16.4998C22.5981 16.2199 23.4151 15.3999 23.6942 14.3599C24.1922 12.4599 24.1922 8.52001 24.1922 8.52001C24.1922 8.52001 24.2121 4.55995 23.6939 2.66009ZM9.68492 12.14V4.86004L15.982 8.5L9.68492 12.14Z" fill="#93BA1F"/>
</svg>
