<svg width="16" height="16" viewBox="0 0 16 16" fill="none" xmlns="http://www.w3.org/2000/svg">
<path d="M3 8.35769C3 8.27308 3.04231 8.14615 3.12692 8.06154L3.71923 7.46923C3.88846 7.3 4.14231 7.3 4.31154 7.46923L4.35385 7.51154L6.68077 10.0077C6.76538 10.0923 6.89231 10.0923 6.97692 10.0077L12.6462 4.12692H12.6885C12.8577 3.95769 13.1115 3.95769 13.2808 4.12692L13.8731 4.71923C14.0423 4.88846 14.0423 5.14231 13.8731 5.31154L7.10385 12.3346C7.01923 12.4192 6.93462 12.4615 6.80769 12.4615C6.68077 12.4615 6.59615 12.4192 6.51154 12.3346L3.21154 8.78077L3.12692 8.65385C3.04231 8.56923 3 8.44231 3 8.35769Z" fill="white"/>
</svg>
