<svg width="34" height="34" viewBox="0 0 34 34" fill="none" xmlns="http://www.w3.org/2000/svg">
<mask id="mask0" mask-type="alpha" maskUnits="userSpaceOnUse" x="0" y="0" width="34" height="34">
<circle cx="17" cy="17" r="17" fill="white"/>
</mask>
<g mask="url(#mask0)">
<path d="M26.4225 12.093L23.5184 9.13298C23.2348 8.8441 22.7752 8.8441 22.4917 9.13298L13.5665 18.2299L11.1756 15.793C10.8921 15.5042 10.4325 15.5042 10.149 15.793L7.2448 18.7531C6.96137 19.042 6.96137 19.5105 7.2448 19.7994L13.0532 25.7195C13.1893 25.8583 13.3739 25.9363 13.5665 25.9363C13.759 25.9363 13.9436 25.8583 14.0798 25.7195L26.4225 13.1394C26.706 12.8504 26.706 12.382 26.4225 12.093ZM13.5665 24.1499L8.78764 19.2763L10.6623 17.3626L13.0582 19.7994C13.3418 20.0883 13.8013 20.0883 14.0849 19.7994L23.005 10.7025L24.8855 12.6162L13.5665 24.1499Z" fill="#93BA1F"/>
</g>
</svg>
