<svg width="14" height="11" viewBox="0 0 14 11" fill="none" xmlns="http://www.w3.org/2000/svg">
<path d="M0.1518 5.566C0.0506 5.4648 0 5.313 0 5.2118C0 5.1106 0.0506 4.9588 0.1518 4.8576L0.8602 4.1492C1.0626 3.9468 1.3662 3.9468 1.5686 4.1492L1.6192 4.1998L4.4022 7.1852C4.5034 7.2864 4.6552 7.2864 4.7564 7.1852L11.5368 0.1518H11.5874V0.1518C11.7898 -0.0506 12.0934 -0.0506 12.2958 0.1518L13.0042 0.8602C13.2066 1.0626 13.2066 1.3662 13.0042 1.5686L4.9082 9.9682C4.807 10.0694 4.7058 10.12 4.554 10.12C4.4022 10.12 4.301 10.0694 4.1998 9.9682L0.253 5.7178L0.1518 5.566V5.566Z" fill="#93BA1F"/>
</svg>
