<svg width="50" height="50" viewBox="0 0 50 50" fill="none" xmlns="http://www.w3.org/2000/svg">
<mask id="mask0" mask-type="alpha" maskUnits="userSpaceOnUse" x="0" y="0" width="50" height="50">
<circle cx="25" cy="25" r="25" fill="white"/>
</mask>
<g mask="url(#mask0)">
<path d="M18.6928 39.0322C16.5052 39.0322 14.6413 40.425 13.9271 42.368C12.9952 41.2197 11.5741 40.4838 9.98308 40.4838H7.80566V41.2096C7.80566 44.0105 10.0847 46.2902 12.8863 46.2902H15.0637V45.5644C15.0637 45.3176 15.0398 45.0767 15.0057 44.8386H15.7895C18.5911 44.8386 20.8702 42.5589 20.8702 39.758V39.0322H18.6928ZM12.8863 44.8386C11.1335 44.8386 9.66736 43.5895 9.33058 41.9354H9.98308C11.7359 41.9354 13.202 43.1845 13.5388 44.8386H12.8863ZM15.7895 43.387H15.137C15.4738 41.7329 16.9407 40.4838 18.6928 40.4838H19.3453C19.0085 42.1379 17.5424 43.387 15.7895 43.387Z" fill="#93BA1F"/>
<path d="M26.6774 37.5806V30.7479L23.3489 27.4194H20.1452V24.5161H20.871C22.0715 24.5161 23.0484 23.5392 23.0484 22.3387V20.8871C23.0484 19.6866 22.0715 18.7097 20.871 18.7097H18.6935V14.3548C18.6935 11.9531 16.7404 10 14.3387 10C11.937 10 9.98387 11.9531 9.98387 14.3548V18.7097H7.80645C6.60597 18.7097 5.62903 19.6866 5.62903 20.8871V22.3387C5.62903 23.5392 6.60597 24.5161 7.80645 24.5161H8.53226V27.4194H5.32855L2 30.7479V51.371C2 53.372 3.62798 55 5.62903 55H23.0484C24.8005 55 26.2666 53.7509 26.6041 52.0968H33.2097C40.814 52.0968 47 45.9107 47 38.3065V37.5806H26.6774ZM11.4355 14.3548C11.4355 12.7537 12.7376 11.4516 14.3387 11.4516C15.9398 11.4516 17.2419 12.7537 17.2419 14.3548V18.7097H11.4355V14.3548ZM7.08065 22.3387V20.8871C7.08065 20.4872 7.40653 20.1613 7.80645 20.1613H20.871C21.2709 20.1613 21.5968 20.4872 21.5968 20.8871V22.3387C21.5968 22.7386 21.2709 23.0645 20.871 23.0645H7.80645C7.40653 23.0645 7.08065 22.7386 7.08065 22.3387ZM9.98387 24.5161H18.6935V27.4194H9.98387V24.5161ZM5.92952 28.871H22.7479L24.1995 30.3226H4.4779L5.92952 28.871ZM23.0484 53.5484H5.62903C4.42855 53.5484 3.45161 52.5715 3.45161 51.371V31.7742H25.2258V51.371C25.2258 52.5715 24.2489 53.5484 23.0484 53.5484ZM26.6774 50.6452V44.3052C27.7748 44.6667 28.9267 45.0971 30.051 45.5188C32.9665 46.6111 35.9808 47.7419 38.2903 47.7419C39.2273 47.7419 40.3531 47.6635 41.436 47.4806C39.2506 49.4425 36.3706 50.6452 33.2097 50.6452H26.6774ZM43.2294 45.4948C42.1066 45.9797 40.205 46.2903 38.2903 46.2903C36.7632 46.2903 34.7665 45.6865 32.69 44.9447C34.9378 43.9271 36.8576 43.3871 38.2903 43.3871C42.3026 43.3871 43.5372 44.0193 43.916 44.4192C43.7041 44.7894 43.4769 45.1501 43.2294 45.4948ZM44.5715 43.083C43.469 42.3064 41.42 41.9355 38.2903 41.9355C36.3459 41.9355 33.8201 42.7172 30.7891 44.2443C30.7129 44.216 30.6367 44.1877 30.5605 44.1586C29.2671 43.6738 27.9396 43.1802 26.6774 42.7825V39.0323H45.5273C45.4439 40.4628 45.1035 41.823 44.5715 43.083Z" fill="#93BA1F"/>
<path d="M36.0259 33.2258H36.2001C40.9549 33.2258 44.8227 29.358 44.8227 24.6032C44.8227 22.9854 44.369 21.4053 43.5119 20.0335L37.839 10.9566C37.4644 10.3578 36.8199 10 36.113 10C35.4061 10 34.7615 10.3578 34.387 10.9566L28.7141 20.0335C27.8569 21.4053 27.4033 22.9861 27.4033 24.6032C27.4033 29.358 31.2711 33.2258 36.0259 33.2258ZM29.9451 20.8029L35.618 11.726C35.7254 11.554 35.9105 11.4516 36.113 11.4516C36.3155 11.4516 36.5006 11.554 36.608 11.726L42.2809 20.8029C42.9936 21.9439 43.3711 23.2583 43.3711 24.6032C43.3711 28.5574 40.1543 31.7742 36.2001 31.7742H36.0259C32.0717 31.7742 28.8549 28.5574 28.8549 24.6032C28.8549 23.2583 29.2324 21.9439 29.9451 20.8029Z" fill="#93BA1F"/>
<path d="M41.9178 24.6033C41.9178 24.2912 41.8924 23.9777 41.8416 23.6714L40.4096 23.9087C40.4473 24.1374 40.4662 24.3703 40.4662 24.6033C40.4662 26.9564 38.5515 28.8711 36.1984 28.8711H36.1113V30.3227H36.1984C39.3521 30.3227 41.9178 27.757 41.9178 24.6033Z" fill="#93BA1F"/>
<path d="M40.0013 22.6683L41.2946 22.0093C41.2192 21.8605 41.1364 21.7153 41.0479 21.5723L40.3794 20.5025L39.1484 21.2719L39.8169 22.3417C39.883 22.4477 39.9446 22.5565 40.0013 22.6683Z" fill="#93BA1F"/>
</g>
</svg>
