<svg width="30" height="24" viewBox="0 0 30 24" fill="none" xmlns="http://www.w3.org/2000/svg">
<path d="M13.1248 1.25002C13.47 1.25002 13.7498 0.970179 13.7498 0.625009C13.7498 0.279839 13.47 0 13.1248 0C5.87963 0.00826158 0.00829012 5.87961 2.85414e-05 13.1248V16.8747C-0.0108111 20.6827 3.0673 23.7784 6.87518 23.7892C10.6831 23.8001 13.7789 20.722 13.7897 16.9141C13.8006 13.1061 10.7224 10.0104 6.91456 9.99955C4.66612 9.99317 2.55573 11.0835 1.26001 12.921C1.37573 6.44842 6.65107 1.25922 13.1248 1.25002Z" fill="#93BA1F"/>
<path d="M23.1249 9.99985C20.8893 10.0016 18.7946 11.0914 17.51 12.921C17.6258 6.44837 22.9011 1.25916 29.3748 1.25002C29.7199 1.25002 29.9998 0.970179 29.9998 0.625009C29.9998 0.279839 29.7199 0 29.3748 0C22.1296 0.00826158 16.2583 5.87961 16.25 13.1248V16.8747C16.25 20.6716 19.328 23.7496 23.1249 23.7496C26.9217 23.7496 29.9997 20.6716 29.9997 16.8747C29.9997 13.0778 26.9218 9.99985 23.1249 9.99985Z" fill="#93BA1F"/>
</svg>
