<svg width="50" height="50" viewBox="0 0 50 50" fill="none" xmlns="http://www.w3.org/2000/svg">
<mask id="mask0" mask-type="alpha" maskUnits="userSpaceOnUse" x="0" y="0" width="50" height="50">
<circle cx="25" cy="25" r="25" fill="white"/>
</mask>
<g mask="url(#mask0)">
<path d="M13.5812 25.9015C13.5812 25.2188 13.9602 24.6059 14.5707 24.3009C14.9855 24.0933 15.3787 23.845 15.7392 23.5633L15.004 22.6228C14.7056 22.8567 14.3803 23.0614 14.0372 23.2333C13.0197 23.7418 12.3877 24.7634 12.3877 25.9015V27.129H13.5812V25.9015Z" fill="#93BA1F"/>
<path d="M12.3877 28.3226H13.5812V29.5161H12.3877V28.3226Z" fill="#93BA1F"/>
<path d="M27.9036 45.0323C26.9165 45.0323 26.1133 45.8355 26.1133 46.8226C26.1133 47.8096 26.9165 48.6129 27.9036 48.6129C28.8907 48.6129 29.6939 47.8096 29.6939 46.8226C29.6939 45.8355 28.8907 45.0323 27.9036 45.0323ZM27.9036 47.4194C27.5748 47.4194 27.3068 47.152 27.3068 46.8226C27.3068 46.4932 27.5748 46.2258 27.9036 46.2258C28.2324 46.2258 28.5004 46.4932 28.5004 46.8226C28.5004 47.152 28.2324 47.4194 27.9036 47.4194Z" fill="#93BA1F"/>
<path d="M23.1292 43.2419C22.1421 43.2419 21.3389 44.0452 21.3389 45.0323C21.3389 46.0193 22.1421 46.8226 23.1292 46.8226C24.1163 46.8226 24.9195 46.0193 24.9195 45.0323C24.9195 44.0452 24.1163 43.2419 23.1292 43.2419ZM23.1292 45.629C22.8004 45.629 22.5324 45.3617 22.5324 45.0323C22.5324 44.7028 22.8004 44.4355 23.1292 44.4355C23.458 44.4355 23.726 44.7028 23.726 45.0323C23.726 45.3617 23.458 45.629 23.1292 45.629Z" fill="#93BA1F"/>
<path d="M30.2903 40.2581C29.3033 40.2581 28.5 41.0613 28.5 42.0484C28.5 43.0354 29.3033 43.8387 30.2903 43.8387C31.2774 43.8387 32.0806 43.0354 32.0806 42.0484C32.0806 41.0613 31.2774 40.2581 30.2903 40.2581ZM30.2903 42.6452C29.9615 42.6452 29.6935 42.3778 29.6935 42.0484C29.6935 41.719 29.9615 41.4516 30.2903 41.4516C30.6191 41.4516 30.8871 41.719 30.8871 42.0484C30.8871 42.3778 30.6191 42.6452 30.2903 42.6452Z" fill="#93BA1F"/>
<path d="M26.7105 39.0645C26.7105 38.0774 25.9073 37.2742 24.9202 37.2742C23.9331 37.2742 23.1299 38.0774 23.1299 39.0645C23.1299 40.0516 23.9331 40.8548 24.9202 40.8548C25.9073 40.8548 26.7105 40.0516 26.7105 39.0645ZM24.9202 39.6613C24.5914 39.6613 24.3234 39.3939 24.3234 39.0645C24.3234 38.7351 24.5914 38.4677 24.9202 38.4677C25.249 38.4677 25.517 38.7351 25.517 39.0645C25.517 39.3939 25.249 39.6613 24.9202 39.6613Z" fill="#93BA1F"/>
<path d="M14.178 37.871C13.191 37.871 12.3877 38.6742 12.3877 39.6613C12.3877 40.6484 13.191 41.4516 14.178 41.4516C15.1651 41.4516 15.9683 40.6484 15.9683 39.6613C15.9683 38.6742 15.1651 37.871 14.178 37.871ZM14.178 40.2581C13.8492 40.2581 13.5812 39.9907 13.5812 39.6613C13.5812 39.3319 13.8492 39.0645 14.178 39.0645C14.5068 39.0645 14.7748 39.3319 14.7748 39.6613C14.7748 39.9907 14.5068 40.2581 14.178 40.2581Z" fill="#93BA1F"/>
<path d="M18.3558 45.0323C17.3687 45.0323 16.5654 45.8355 16.5654 46.8226C16.5654 47.8096 17.3687 48.6129 18.3558 48.6129C19.3428 48.6129 20.1461 47.8096 20.1461 46.8226C20.1461 45.8355 19.3428 45.0323 18.3558 45.0323ZM18.3558 47.4194C18.0269 47.4194 17.759 47.152 17.759 46.8226C17.759 46.4932 18.0269 46.2258 18.3558 46.2258C18.6846 46.2258 18.9525 46.4932 18.9525 46.8226C18.9525 47.152 18.6846 47.4194 18.3558 47.4194Z" fill="#93BA1F"/>
<path d="M45.9228 29.3275L41.2584 21.8643C40.9505 21.372 40.42 21.0777 39.8393 21.0777C39.2586 21.0777 38.7281 21.3714 38.4202 21.8637L35.0651 27.2323V25.9027C35.0651 23.8545 33.9277 22.0135 32.0962 21.0986C31.1646 20.6325 30.535 19.7714 30.3518 18.7742H30.8877C31.8748 18.7742 32.678 17.9709 32.678 16.9839V15.7903C32.678 14.8033 31.8748 14 30.8877 14H14.1774C13.1904 14 12.3871 14.8033 12.3871 15.7903V16.9839C12.3871 17.9709 13.1904 18.7742 14.1774 18.7742H14.7133C14.5301 19.7714 13.8999 20.6325 12.969 21.0986C11.1375 22.0141 10 23.8545 10 25.9027V48.0161C10 49.6614 11.3386 51 12.9839 51H32.0812C33.7265 51 35.0651 49.6614 35.0651 48.0161V38.3764C36.3177 39.4912 37.9625 40.1751 39.7677 40.1751H39.9109C43.8204 40.1751 47.0006 36.9949 47.0006 33.0854C47.0006 31.7552 46.6276 30.456 45.9228 29.3275ZM13.5806 16.9839V15.7903C13.5806 15.4609 13.8486 15.1935 14.1774 15.1935H30.8877C31.2165 15.1935 31.4845 15.4609 31.4845 15.7903V16.9839C31.4845 17.3133 31.2165 17.5806 30.8877 17.5806H14.1774C13.8486 17.5806 13.5806 17.3133 13.5806 16.9839ZM13.5031 22.1663C14.8428 21.4955 15.7332 20.2291 15.9266 18.7742H29.1391C29.3325 20.2285 30.2229 21.4961 31.5632 22.1663C32.9871 22.8776 33.8716 24.3093 33.8716 25.9021V29.1414L33.7558 29.327C33.2515 30.1344 32.9209 31.0295 32.7711 31.9599C32.4089 31.9265 32.0466 31.9032 31.6892 31.9032C29.0657 31.9032 26.6375 32.8109 24.2892 33.7001C22.4642 32.8557 19.814 31.9032 17.1428 31.9032C15.337 31.9032 12.707 32.0476 11.1935 32.7835V25.9021C11.1935 24.3093 12.0786 22.8782 13.5031 22.1663ZM22.6731 34.3029C20.8428 34.9617 19.0513 35.4839 17.1428 35.4839C12.6037 35.4839 11.1941 34.609 11.1941 34.2903C11.1941 33.9716 12.6043 33.0968 17.1434 33.0968C19.1074 33.0968 21.0839 33.6685 22.6731 34.3029ZM32.0812 49.8065H12.9839C11.9968 49.8065 11.1935 49.0032 11.1935 48.0161V35.7972C12.707 36.533 15.3375 36.6774 17.1428 36.6774C19.7978 36.6774 22.253 35.7476 24.6275 34.8489C27.0063 33.9478 29.2531 33.0968 31.6892 33.0968C32.0168 33.0968 32.3486 33.1189 32.681 33.1505C32.6941 34.5786 33.1298 35.9064 33.871 37.0152V48.0161C33.8716 49.0032 33.0683 49.8065 32.0812 49.8065ZM39.9109 38.981H39.7677C36.5165 38.981 33.8716 36.3361 33.8716 33.0848C33.8716 31.9784 34.1819 30.8983 34.7679 29.9601L39.4323 22.4969C39.52 22.356 39.6722 22.2713 39.8393 22.2713C40.0064 22.2713 40.158 22.356 40.2463 22.4969L44.9107 29.9601C45.4967 30.8983 45.807 31.979 45.807 33.0848C45.807 36.3367 43.1621 38.981 39.9109 38.981Z" fill="#93BA1F"/>
<path d="M36.259 33.0848C36.259 32.8933 36.2745 32.7011 36.3055 32.5137L35.1281 32.3192C35.0869 32.5704 35.0654 32.8282 35.0654 33.0848C35.0654 35.6778 37.175 37.7874 39.768 37.7874H39.8396V36.5939H39.768C37.8333 36.5939 36.259 35.0202 36.259 33.0848Z" fill="#93BA1F"/>
<path d="M36.7918 31.2253L37.3414 30.3456L36.3293 29.7125L35.7791 30.5933C35.7063 30.7103 35.6388 30.8296 35.5762 30.9526L36.6402 31.4932C36.6868 31.4013 36.7375 31.3124 36.7918 31.2253Z" fill="#93BA1F"/>
</g>
</svg>
