<svg width="34" height="34" viewBox="0 0 34 34" fill="none" xmlns="http://www.w3.org/2000/svg">
<mask id="mask0" mask-type="alpha" maskUnits="userSpaceOnUse" x="0" y="0" width="34" height="34">
<circle cx="17" cy="17" r="17" fill="white"/>
</mask>
<g mask="url(#mask0)">
<path d="M23.7146 17.8218L22.1645 17.4343L19.5668 12.8884C19.5069 12.7834 19.4202 12.6962 19.3157 12.6355C19.2111 12.5748 19.0924 12.5429 18.9715 12.5429H14.1715V5.68572C14.1715 5.50385 14.0992 5.32944 13.9706 5.20084C13.842 5.07224 13.6676 5 13.4857 5H-11.2C-11.3819 5 -11.5563 5.07224 -11.6849 5.20084C-11.8135 5.32944 -11.8857 5.50385 -11.8857 5.68572V10.4857H-13.2571C-13.439 10.4857 -13.6134 10.558 -13.742 10.6866C-13.8706 10.8152 -13.9429 10.9896 -13.9429 11.1714C-13.9429 11.3533 -13.8706 11.5277 -13.742 11.6563C-13.6134 11.7849 -13.439 11.8572 -13.2571 11.8572H-11.8857V13.2286H-15.3143C-15.4961 13.2286 -15.6706 13.3008 -15.7992 13.4294C-15.9278 13.558 -16 13.7324 -16 13.9143C-16 14.0962 -15.9278 14.2706 -15.7992 14.3992C-15.6706 14.5278 -15.4961 14.6 -15.3143 14.6H-11.8857V15.9714H-13.2571C-13.439 15.9714 -13.6134 16.0437 -13.742 16.1723C-13.8706 16.3009 -13.9429 16.4753 -13.9429 16.6572C-13.9429 16.839 -13.8706 17.0134 -13.742 17.142C-13.6134 17.2706 -13.439 17.3429 -13.2571 17.3429H-11.8857V23.5143C-11.8856 23.6195 -11.8612 23.7233 -11.8143 23.8176C-11.814 23.8187 -11.8137 23.8199 -11.8133 23.821L-10.4419 26.5639C-10.3849 26.6777 -10.2974 26.7735 -10.189 26.8405C-10.0807 26.9074 -9.9559 26.9429 -9.82856 26.9429H-8.16999C-7.90335 27.5543 -7.46409 28.0746 -6.90608 28.44C-6.34807 28.8054 -5.69556 29 -5.02856 29C-4.36156 29 -3.70905 28.8054 -3.15104 28.44C-2.59303 28.0746 -2.15377 27.5543 -1.88713 26.9429H15.83C16.0967 27.5543 16.5359 28.0746 17.0939 28.44C17.652 28.8054 18.3045 29 18.9715 29C19.6385 29 20.291 28.8054 20.849 28.44C21.407 28.0746 21.8463 27.5543 22.1129 26.9429H23.0858C23.1758 26.9429 23.265 26.9252 23.3482 26.8907C23.4314 26.8562 23.507 26.8057 23.5706 26.7421L24.9421 25.3706C25.0058 25.3069 25.0563 25.2313 25.0907 25.1482C25.1252 25.065 25.1429 24.9758 25.1429 24.8857V19.6512C25.1434 19.2306 25.003 18.8219 24.7441 18.4903C24.4852 18.1587 24.1228 17.9234 23.7146 17.8218ZM16.9143 13.9143H18.5735L20.5327 17.3429H16.9143V13.9143ZM-8.45713 15.9714H-10.5143V14.6H-8.45713C-8.27527 14.6 -8.10086 14.5278 -7.97226 14.3992C-7.84366 14.2706 -7.77142 14.0962 -7.77142 13.9143C-7.77142 13.7324 -7.84366 13.558 -7.97226 13.4294C-8.10086 13.3008 -8.27527 13.2286 -8.45713 13.2286H-10.5143V11.8572H-9.14285C-8.96099 11.8572 -8.78657 11.7849 -8.65798 11.6563C-8.52938 11.5277 -8.45713 11.3533 -8.45713 11.1714C-8.45713 10.9896 -8.52938 10.8152 -8.65798 10.6866C-8.78657 10.558 -8.96099 10.4857 -9.14285 10.4857H-10.5143V6.37143H12.8V22.8286H-2.97364C-3.56626 22.3835 -4.28739 22.1428 -5.02856 22.1428C-5.76973 22.1428 -6.49086 22.3835 -7.08348 22.8286H-10.5143V17.3429H-8.45713C-8.27527 17.3429 -8.10086 17.2706 -7.97226 17.142C-7.84366 17.0134 -7.77142 16.839 -7.77142 16.6572C-7.77142 16.4753 -7.84366 16.3009 -7.97226 16.1723C-8.10086 16.0437 -8.27527 15.9714 -8.45713 15.9714ZM-9.40479 25.5715L-10.0905 24.2H-8.16999C-8.35966 24.6323 -8.45744 25.0994 -8.45713 25.5715H-9.40479ZM-5.02856 27.6286C-5.43542 27.6286 -5.83315 27.5079 -6.17145 27.2819C-6.50974 27.0559 -6.77341 26.7346 -6.92911 26.3587C-7.08481 25.9828 -7.12555 25.5692 -7.04618 25.1701C-6.9668 24.7711 -6.77088 24.4045 -6.48318 24.1168C-6.19548 23.8291 -5.82894 23.6332 -5.42989 23.5538C-5.03084 23.4745 -4.61722 23.5152 -4.24132 23.6709C-3.86543 23.8266 -3.54415 24.0903 -3.3181 24.4286C-3.09206 24.7669 -2.97141 25.1646 -2.97141 25.5715C-2.97205 26.1168 -3.18899 26.6397 -3.57464 27.0254C-3.96029 27.411 -4.48316 27.628 -5.02856 27.6286ZM12.8 25.5715H-1.59998C-1.59967 25.0994 -1.69745 24.6323 -1.88713 24.2H12.8V25.5715ZM14.1715 25.5715V13.9143H15.5429V18.0286C15.5429 18.2104 15.6151 18.3849 15.7437 18.5135C15.8723 18.6421 16.0467 18.7143 16.2286 18.7143H21.6299L23.3819 19.1523C23.4932 19.18 23.5921 19.2442 23.6627 19.3346C23.7333 19.425 23.7716 19.5365 23.7715 19.6512V20.0857H22.4C22.2182 20.0857 22.0438 20.158 21.9152 20.2866C21.7866 20.4152 21.7143 20.5896 21.7143 20.7714C21.7143 20.9533 21.7866 21.1277 21.9152 21.2563C22.0438 21.3849 22.2182 21.4572 22.4 21.4572H23.7715V22.8286H21.0264C20.5172 22.4465 19.9116 22.2138 19.2775 22.1566C18.6435 22.0994 18.006 22.22 17.4367 22.5048C16.8673 22.7896 16.3885 23.2273 16.054 23.769C15.7195 24.3107 15.5425 24.9348 15.5429 25.5715H14.1715ZM18.9715 27.6286C18.5646 27.6286 18.1669 27.5079 17.8286 27.2819C17.4903 27.0559 17.2266 26.7346 17.0709 26.3587C16.9152 25.9828 16.8745 25.5692 16.9538 25.1701C17.0332 24.7711 17.2292 24.4045 17.5168 24.1168C17.8045 23.8291 18.1711 23.6332 18.5701 23.5538C18.9692 23.4745 19.3828 23.5152 19.7587 23.6709C20.1346 23.8266 20.4559 24.0903 20.6819 24.4286C20.908 24.7669 21.0286 25.1646 21.0286 25.5715C21.028 26.1168 20.811 26.6397 20.4254 27.0254C20.0397 27.411 19.5169 27.628 18.9715 27.6286ZM22.8018 25.5715H22.4C22.4004 25.0994 22.3026 24.6323 22.1129 24.2H23.7715V24.6018L22.8018 25.5715Z" fill="#93BA1F"/>
<path d="M18.2849 20.7714C18.2849 20.5895 18.2126 20.4151 18.084 20.2865C17.9554 20.1579 17.781 20.0857 17.5991 20.0857H16.2277C16.0458 20.0857 15.8714 20.1579 15.7428 20.2865C15.6142 20.4151 15.542 20.5895 15.542 20.7714C15.542 20.9533 15.6142 21.1277 15.7428 21.2563C15.8714 21.3849 16.0458 21.4571 16.2277 21.4571H17.5991C17.781 21.4571 17.9554 21.3849 18.084 21.2563C18.2126 21.1277 18.2849 20.9533 18.2849 20.7714Z" fill="#93BA1F"/>
</g>
</svg>
