<svg width="40" height="26" viewBox="0 0 40 26" fill="none" xmlns="http://www.w3.org/2000/svg">
<path d="M37.1999 10.7267L36.1641 6.58329C36.4473 6.52314 36.6598 6.27189 36.6598 5.97087V5.30282C36.6598 3.85235 35.4797 2.67235 34.0293 2.67235H29.3112V1.29438C29.3112 0.580626 28.7305 0 28.0168 0H3.96657C3.25282 0 2.67219 0.580626 2.67219 1.29438V12.6514C2.67219 12.9973 2.95258 13.2778 3.29852 13.2778C3.64438 13.2778 3.92485 12.9974 3.92485 12.6514V1.29438C3.92485 1.27133 3.94352 1.25266 3.96657 1.25266H28.0167C28.0397 1.25266 28.0584 1.27133 28.0584 1.29438V12.6516C28.0584 12.9974 28.3388 13.2779 28.6847 13.2779C29.0306 13.2779 29.3111 12.9975 29.3111 12.6516V11.9416H36.6993C36.6999 11.9416 36.7004 11.9417 36.7009 11.9417C36.7016 11.9417 36.7021 11.9417 36.7027 11.9417C37.6118 11.9423 38.3837 12.539 38.6489 13.3613H36.7014C36.3555 13.3613 36.0751 13.6417 36.0751 13.9876V15.3237C36.0751 16.4058 36.9554 17.2861 38.0375 17.2861H38.7473V20.0418H37.1097C36.5717 18.4885 35.0951 17.3696 33.3611 17.3696C31.6271 17.3696 30.1504 18.4885 29.6125 20.0418H29.3109V15.3236C29.3109 14.9778 29.0305 14.6973 28.6846 14.6973C28.3387 14.6973 28.0583 14.9777 28.0583 15.3236V20.0417H15.0639C14.5259 18.4883 13.0492 17.3694 11.3153 17.3694C9.58127 17.3694 8.10455 18.4883 7.56666 20.0417H3.96657C3.94352 20.0417 3.92485 20.023 3.92485 20V18.6221H6.63884C6.9847 18.6221 7.26517 18.3417 7.26517 17.9957C7.26517 17.6498 6.98478 17.3694 6.63884 17.3694H0.626329C0.280469 17.3694 0 17.6498 0 17.9957C0 18.3417 0.280391 18.6221 0.626329 18.6221H2.67227V20C2.67227 20.7137 3.2529 21.2943 3.96665 21.2943H7.34978C7.34962 21.3082 7.34869 21.3221 7.34869 21.3361C7.34869 23.5232 9.12814 25.3026 11.3153 25.3026C13.5024 25.3026 15.2818 23.5232 15.2818 21.3361C15.2818 21.322 15.2809 21.3082 15.2807 21.2943H29.3956C29.3954 21.3082 29.3945 21.3221 29.3945 21.3361C29.3945 23.5232 31.174 25.3026 33.3611 25.3026C35.5482 25.3026 37.3277 23.5232 37.3277 21.3361C37.3277 21.322 37.3267 21.3082 37.3266 21.2943H39.3737C39.7195 21.2943 40 21.0139 40 20.668V13.9874C40.0001 12.3381 38.7831 10.9677 37.1999 10.7267ZM29.3112 3.92493H34.0293C34.7891 3.92493 35.4072 4.54306 35.4072 5.30282V5.34454H29.3112V3.92493ZM29.3112 10.689V6.59712H34.8764L35.8994 10.689H29.3112ZM11.3153 24.0502C9.81877 24.0502 8.60127 22.8328 8.60127 21.3362C8.60127 19.8396 9.81877 18.6222 11.3153 18.6222C12.8117 18.6222 14.0292 19.8396 14.0292 21.3362C14.0292 22.8328 12.8117 24.0502 11.3153 24.0502ZM33.3612 24.0502C31.8648 24.0502 30.6472 22.8328 30.6472 21.3362C30.6472 19.8396 31.8648 18.6222 33.3612 18.6222C34.8577 18.6222 36.0752 19.8396 36.0752 21.3362C36.0752 22.8328 34.8577 24.0502 33.3612 24.0502ZM38.7475 16.0335H38.0377C37.6462 16.0335 37.3278 15.715 37.3278 15.3236V14.6138H38.7474V16.0335H38.7475Z" fill="#8DA6A2"/>
<path d="M11.3159 20.0419C10.6021 20.0419 10.0215 20.6225 10.0215 21.3363C10.0215 22.05 10.6021 22.6307 11.3159 22.6307C12.0296 22.6307 12.6102 22.05 12.6102 21.3363C12.6102 20.6225 12.0296 20.0419 11.3159 20.0419Z" fill="#8DA6A2"/>
<path d="M33.3608 20.0419C32.647 20.0419 32.0664 20.6225 32.0664 21.3363C32.0664 22.05 32.647 22.6307 33.3608 22.6307C34.0745 22.6307 34.6552 22.05 34.6552 21.3363C34.6552 20.6225 34.0745 20.0419 33.3608 20.0419Z" fill="#8DA6A2"/>
<path d="M26.0124 17.3696H16.6595C16.3137 17.3696 16.0332 17.65 16.0332 17.996C16.0332 18.3419 16.3136 18.6223 16.6595 18.6223H26.0124C26.3582 18.6223 26.6387 18.3419 26.6387 17.996C26.6387 17.65 26.3583 17.3696 26.0124 17.3696Z" fill="#8DA6A2"/>
<path d="M9.979 14.6974H1.96227C1.61641 14.6974 1.33594 14.9778 1.33594 15.3237C1.33594 15.6697 1.61633 15.95 1.96227 15.95H9.979C10.3249 15.95 10.6053 15.6697 10.6053 15.3237C10.6053 14.9778 10.3249 14.6974 9.979 14.6974Z" fill="#8DA6A2"/>
<path d="M21.7794 6.19596C21.5349 5.95143 21.1382 5.95143 20.8937 6.19604L15.324 11.7657L12.4266 8.86823C12.182 8.62362 11.7854 8.62362 11.5409 8.86823C11.2963 9.11284 11.2963 9.50933 11.5409 9.75394L14.8812 13.0943C15.0035 13.2166 15.1638 13.2777 15.324 13.2777C15.4842 13.2777 15.6446 13.2166 15.7668 13.0943L21.7793 7.08174C22.0239 6.83706 22.0239 6.44057 21.7794 6.19596Z" fill="#8DA6A2"/>
</svg>
