<svg width="33" height="33" viewBox="0 0 33 33" fill="none" xmlns="http://www.w3.org/2000/svg">
<path d="M32.8658 19.2856C32.7622 18.988 32.6016 18.7161 32.394 18.4865C32.1864 18.257 31.9361 18.0748 31.6587 17.9513V1.74794C31.6574 1.28478 31.482 0.84099 31.1708 0.513488C30.8595 0.185985 30.4378 0.00138326 29.9976 0H12.2791C11.8389 0.00138326 11.4172 0.185985 11.106 0.513488C10.7947 0.84099 10.6193 1.28478 10.618 1.74794V18.0795C9.98974 18.38 9.3892 18.7408 8.82397 19.1574L7.08533 20.4392L6.44857 19.4837C6.36409 19.358 6.23606 19.2723 6.09208 19.2451C5.94811 19.2178 5.79973 19.2512 5.67892 19.338L0.236008 23.3466C0.11621 23.4366 0.0346434 23.5723 0.00877128 23.7248C-0.0171008 23.8773 0.0147775 24.0343 0.0975814 24.1623L5.81735 32.7506C5.90118 32.8771 6.02928 32.9635 6.17356 32.9908C6.31784 33.0181 6.46652 32.9841 6.587 32.8962L12.0299 28.8876C12.1495 28.7975 12.2309 28.6617 12.2567 28.5094C12.2826 28.357 12.2509 28.2 12.1683 28.0719L11.8527 27.6C12.9211 26.8319 14.2338 26.5368 15.5072 26.7784L16.4928 26.9532C17.7379 27.186 19.0194 27.0694 20.2081 26.6153L31.5425 22.2746C31.816 22.1699 32.0671 22.0095 32.2817 21.8026C32.4962 21.5956 32.6699 21.3463 32.7928 21.0687C32.9157 20.7911 32.9854 20.4907 32.9979 20.1848C33.0105 19.8788 32.9656 19.5733 32.8658 19.2856ZM23.9069 1.16529H29.9976C30.1445 1.16529 30.2853 1.22668 30.3892 1.33595C30.493 1.44521 30.5513 1.59341 30.5513 1.74794V3.49588H23.9069V1.16529ZM19.4772 1.16529H22.7995V6.17023L21.5315 4.83014C21.4269 4.72098 21.2856 4.65972 21.1384 4.65972C20.9911 4.65972 20.8498 4.72098 20.7452 4.83014L19.4772 6.17023V1.16529ZM11.7254 1.74794C11.7254 1.59341 11.7837 1.44521 11.8876 1.33595C11.9914 1.22668 12.1322 1.16529 12.2791 1.16529H18.3698V3.49588H11.7254V1.74794ZM11.7254 4.66117H18.3698V7.5744C18.3694 7.68966 18.4019 7.8024 18.4631 7.89798C18.5244 7.99356 18.6115 8.06758 18.7131 8.11044C18.814 8.15506 18.9251 8.16725 19.0325 8.14547C19.1399 8.1237 19.2388 8.06893 19.3167 7.98808L21.1384 6.06535L22.96 7.98808C23.0648 8.09677 23.2061 8.1575 23.3532 8.15705C23.4258 8.15906 23.4979 8.1431 23.5636 8.11044C23.6653 8.06758 23.7524 7.99356 23.8136 7.89798C23.8748 7.8024 23.9073 7.68966 23.9069 7.5744V4.66117H30.5513V17.7765C30.3739 17.7923 30.199 17.8315 30.0309 17.8931L28.0707 18.6447H24.1782C23.8861 18.3822 23.5323 18.2072 23.1538 18.1378L17.5891 17.1065C15.7911 16.7719 13.9436 16.8876 12.196 17.4444L12.0964 17.4794C11.969 17.5144 11.8472 17.5668 11.7254 17.6134V4.66117ZM6.40428 31.6086L1.32681 23.9701L5.86165 20.6257L10.9391 28.2642L6.40428 31.6086ZM31.8802 20.2877C31.8461 20.4893 31.7621 20.6777 31.6367 20.8342C31.5113 20.9907 31.3489 21.1097 31.166 21.1792L19.8316 25.5199C18.8254 25.9046 17.7405 26.0031 16.6866 25.8054L15.6954 25.6306C14.1337 25.3347 12.524 25.699 11.216 26.6444L7.72209 21.389L9.46073 20.113C10.3578 19.4463 11.3504 18.9348 12.4009 18.5981L12.5006 18.5689C14.088 18.0622 15.766 17.9525 17.4009 18.2485L22.96 19.2798C23.2507 19.3361 23.509 19.5096 23.6799 19.7634C23.7768 19.9133 23.8393 20.0848 23.8626 20.2644C23.8909 20.4275 23.8814 20.5954 23.8349 20.7539C23.7585 21.0326 23.5865 21.2715 23.3523 21.4244C23.118 21.5773 22.8381 21.6332 22.5669 21.5812L16.5814 20.4684L16.3931 21.6104L22.3731 22.7232C22.5025 22.7512 22.6342 22.7649 22.7663 22.764C23.243 22.7635 23.707 22.6019 24.0898 22.3029C24.4726 22.004 24.754 21.5835 24.8925 21.1035L30.4074 18.9884C30.6835 18.8835 30.9879 18.8982 31.2537 19.0293C31.5194 19.1604 31.7249 19.3972 31.8249 19.6876C31.8957 19.8784 31.9149 20.0862 31.8802 20.2877Z" fill="#8DA6A2"/>
</svg>
