<svg width="50" height="50" viewBox="0 0 50 50" fill="none" xmlns="http://www.w3.org/2000/svg">
<mask id="mask0" mask-type="alpha" maskUnits="userSpaceOnUse" x="0" y="0" width="50" height="50">
<circle cx="25" cy="25" r="25" fill="white"/>
</mask>
<g mask="url(#mask0)">
<path d="M17.358 25.6481L17.6647 27.1729C17.7667 27.7422 18.209 28.1897 18.7771 28.2984C19.3746 28.4603 19.9843 28.5731 20.6002 28.6357C20.9762 28.6367 21.3371 28.4884 21.6037 28.2232L35.2501 14.573L35.6335 14.9563C36.0219 15.3468 36.55 15.5663 37.1008 15.5663C37.6516 15.5663 38.1797 15.3468 38.5682 14.9563L43.3544 10.1709C43.9913 9.53786 44.3483 8.67617 44.3457 7.77816V7.17021C44.3445 6.67913 44.5396 6.20795 44.8877 5.86153L45.9718 4.77749C46.9334 3.80799 47.2195 2.35619 46.6976 1.09434C46.1756 -0.167502 44.9476 -0.993039 43.5821 -1C41.9369 -1 41.2216 -0.0409185 40.1053 1.07533C39.7587 1.42359 39.2872 1.61876 38.7959 1.61735H38.1879C37.29 1.61487 36.4283 1.97183 35.7952 2.60863L31.0098 7.39484C30.2003 8.20563 30.2003 9.51879 31.0098 10.3296L31.3931 10.7129L17.7467 24.3593C17.41 24.697 17.2642 25.1805 17.358 25.6481ZM32.0931 8.47888L34.3278 6.24486L37.0242 8.94117C37.2166 9.14047 37.5017 9.2204 37.7697 9.15024C38.0378 9.08008 38.2471 8.87075 38.3173 8.6027C38.3874 8.33466 38.3075 8.04962 38.1082 7.85713L35.4119 5.16081L36.8793 3.69344C37.2255 3.34509 37.6967 3.14965 38.1879 3.15065H38.7959C40.4404 3.15065 41.1572 2.19157 42.2734 1.07533C43.0058 0.376138 44.1584 0.376138 44.8908 1.07533C45.6115 1.79921 45.6115 2.96956 44.8908 3.69344C43.7669 4.81659 42.8154 5.52881 42.8154 7.17021V7.77816C42.817 8.26908 42.6217 8.74014 42.2734 9.08607L40.8053 10.5542L39.962 9.71089C39.7695 9.5116 39.4844 9.43167 39.2164 9.50183C38.9483 9.57199 38.739 9.78132 38.6689 10.0494C38.5987 10.3174 38.6786 10.6025 38.8779 10.7949L39.7212 11.6383L37.4864 13.873C37.2723 14.0787 36.934 14.0787 36.7198 13.873L32.0931 9.24554C31.9914 9.14388 31.9342 9.00599 31.9342 8.86221C31.9342 8.71843 31.9914 8.58054 32.0931 8.47888ZM34.1691 13.4897L28.4193 19.2396L26.7265 17.5445L32.4764 11.7947L34.1691 13.4897ZM25.6455 18.6263L27.3398 20.3214L20.5641 27.094L19.1566 26.8103L18.8721 25.402L25.6455 18.6263Z" fill="#93BA1F"/>
<path d="M20.1332 44.9993C23.4576 45.0553 26.2006 42.411 26.2664 39.0869C26.2664 36.7992 23.4459 32.3771 21.9371 30.5172C21.4931 29.9784 20.8314 29.6663 20.1332 29.6663C19.435 29.6663 18.7733 29.9784 18.3293 30.5172C16.8205 32.3771 14 36.7961 14 39.0869C14.0659 42.411 16.8089 45.0553 20.1332 44.9993ZM19.5199 31.484C19.6726 31.3036 19.8969 31.1995 20.1332 31.1995C20.3695 31.1995 20.5939 31.3036 20.7465 31.484C22.3718 33.4857 24.7331 37.4432 24.7331 39.0869C24.6683 41.5646 22.6112 43.523 20.1332 43.466C17.6552 43.523 15.5981 41.5646 15.5333 39.0869C15.5333 37.4432 17.8946 33.4857 19.5199 31.484Z" fill="#93BA1F"/>
<path d="M17.0393 40.3994C17.466 41.2521 18.2702 41.8534 19.2089 42.0216C19.6198 42.1241 20.036 41.874 20.1384 41.4631C20.2409 41.0522 19.9909 40.636 19.5799 40.5335C19.0991 40.4678 18.6758 40.183 18.4338 39.7623C18.2526 39.1497 18.3138 38.491 18.6048 37.9223C18.7936 37.5431 18.6393 37.0827 18.2602 36.8938C17.881 36.705 17.4205 36.8593 17.2317 37.2384C16.7339 38.2203 16.6642 39.3643 17.0393 40.3994Z" fill="#93BA1F"/>
</g>
</svg>
