<svg width="50" height="50" viewBox="0 0 50 50" fill="none" xmlns="http://www.w3.org/2000/svg">
<mask id="mask0" mask-type="alpha" maskUnits="userSpaceOnUse" x="0" y="0" width="50" height="50">
<circle cx="25" cy="25" r="25" fill="white"/>
</mask>
<g mask="url(#mask0)">
<path d="M40.3183 13.6358C38.9918 12.3348 37.3184 11.4739 35.479 11.1464C33.6828 10.8266 31.8512 11.0329 30.1823 11.7428C29.826 11.8944 29.6624 12.3006 29.8169 12.6501C29.9714 12.9996 30.3857 13.16 30.7419 13.0085C33.6856 11.7563 37.0544 12.3854 39.3238 14.6115C40.7902 16.0499 41.5977 17.9622 41.5977 19.9963C41.5977 22.0305 40.7901 23.9429 39.3238 25.3812L34.2108 30.3965L23.2311 19.6267L26.1064 16.8064C26.381 16.537 26.381 16.1002 26.1064 15.8308C25.8318 15.5614 25.3865 15.5614 25.1118 15.8308L16.1291 24.6419C14.5279 26.2124 13.5869 28.2962 13.4589 30.4881C11.7341 29.5919 9.69561 29.342 7.76176 29.8485C7.51858 29.9122 7.32871 30.0985 7.26373 30.3371C6.54459 32.9788 7.32097 35.8195 9.28984 37.7508C10.7733 39.2058 12.7829 39.9968 14.8356 39.9968C15.5074 39.9968 16.1839 39.9121 16.8481 39.7382C16.8502 39.7376 16.8521 39.7367 16.8541 39.7362C16.8723 39.7313 16.8903 39.7253 16.9081 39.719C16.9258 39.7253 16.9438 39.7313 16.962 39.7362C16.964 39.7367 16.966 39.7376 16.968 39.7382C17.6323 39.9121 18.3085 39.9968 18.9805 39.9968C19.5689 39.9968 20.1538 39.9315 20.7238 39.8044C21.3585 39.9352 21.9961 40 22.6284 40C25.032 40 27.3534 39.0738 29.0978 37.3628L40.3183 26.3568C43.8939 22.8496 43.8939 17.143 40.3183 13.6358ZM14.8338 38.6175C13.1499 38.6174 11.5011 37.9686 10.2845 36.7752C8.76747 35.2872 8.11359 33.1406 8.52879 31.0893C10.6202 30.6822 12.8085 31.3235 14.3255 32.8115C15.6298 34.0909 16.2953 35.8572 16.1926 37.6311L13.5764 35.0649C13.3018 34.7956 12.8565 34.7956 12.5819 35.0649C12.3072 35.3343 12.3072 35.7711 12.5819 36.0405L15.1978 38.6065C15.0764 38.6131 14.955 38.6175 14.8338 38.6175ZM18.6182 38.6067L21.2345 36.0404C21.5091 35.7711 21.5091 35.3343 21.2345 35.0649C20.9598 34.7955 20.5146 34.7955 20.2399 35.0649L17.6237 37.631C17.521 35.8571 18.1865 34.0908 19.4908 32.8114C21.0077 31.3235 23.196 30.682 25.2875 31.0893C25.7027 33.1405 25.0488 35.2872 23.5318 36.7752C22.2274 38.0547 20.4268 38.7076 18.6182 38.6067ZM28.1033 36.3872C26.8501 37.6165 25.2449 38.3665 23.5438 38.5657C23.8909 38.323 24.22 38.0513 24.5263 37.7508C26.4953 35.8195 27.2716 32.9787 26.5524 30.3371C26.4875 30.0985 26.2976 29.9123 26.0544 29.8485C23.3612 29.1432 20.4651 29.9046 18.4962 31.8359C17.8235 32.4958 17.2903 33.2619 16.9081 34.0898C16.5258 33.2618 15.9926 32.4957 15.3199 31.8359C15.1725 31.6913 15.0194 31.5541 14.862 31.4228C14.7409 29.2602 15.5609 27.1501 17.1235 25.6174L22.2365 20.6022L33.2162 31.372L28.1033 36.3872Z" fill="#93BA1F"/>
<path d="M25.5 26C25.6315 26 25.7605 25.9465 25.8535 25.8535C25.947 25.7605 26 25.6315 26 25.5C26 25.3685 25.947 25.2395 25.8535 25.1465C25.7605 25.0535 25.6315 25 25.5 25C25.3685 25 25.2395 25.0535 25.1465 25.1465C25.0535 25.2395 25 25.3685 25 25.5C25 25.6315 25.0535 25.7605 25.1465 25.8535C25.2395 25.9465 25.3685 26 25.5 26Z" fill="#93BA1F"/>
</g>
</svg>
