<svg width="43" height="40" viewBox="0 0 43 40" fill="none" xmlns="http://www.w3.org/2000/svg">
<path d="M42.691 38.2032C42.6871 38.409 42.6426 38.6121 42.5598 38.8007C42.4771 38.9892 42.3579 39.1595 42.209 39.3018C42.0601 39.444 41.8845 39.5554 41.6924 39.6294C41.5003 39.7034 41.2954 39.7387 41.0895 39.7332H2.26161C2.05598 39.7379 1.85144 39.7021 1.65965 39.6278C1.46787 39.5534 1.29261 39.442 1.14389 39.3C0.995172 39.1579 0.875904 38.9879 0.792903 38.7997C0.709902 38.6115 0.664794 38.4088 0.660156 38.2032V1.62562C0.669532 1.2098 0.843351 0.814646 1.14353 0.526743C1.44371 0.238841 1.84576 0.0816623 2.26161 0.0896454H41.0895C41.5054 0.0816623 41.9074 0.238841 42.2076 0.526743C42.5078 0.814646 42.6816 1.2098 42.691 1.62562V38.2032Z" fill="#75AC40"/>
<mask id="mask0" mask-type="alpha" maskUnits="userSpaceOnUse" x="0" y="0" width="43" height="40">
<path d="M42.691 38.2032C42.6871 38.409 42.6426 38.6121 42.5598 38.8007C42.4771 38.9892 42.3579 39.1595 42.209 39.3018C42.0601 39.444 41.8845 39.5554 41.6924 39.6294C41.5003 39.7034 41.2954 39.7387 41.0895 39.7332H2.26161C2.05598 39.7379 1.85144 39.7021 1.65965 39.6278C1.46787 39.5534 1.29261 39.442 1.14389 39.3C0.995172 39.1579 0.875904 38.9879 0.792903 38.7997C0.709902 38.6115 0.664794 38.4088 0.660156 38.2032V1.62562C0.669532 1.2098 0.843351 0.814646 1.14353 0.526743C1.44371 0.238841 1.84576 0.0816623 2.26161 0.0896454H41.0895C41.5054 0.0816623 41.9074 0.238841 42.2076 0.526743C42.5078 0.814646 42.6816 1.2098 42.691 1.62562V38.2032Z" fill="#75AC40"/>
</mask>
<g mask="url(#mask0)">
<path d="M15.3644 4.17962C12.8878 6.85268 9.31574 15.6518 9.31574 15.6518L5.08289 19.2833C5.08289 19.2833 3.66003 17.2235 3.04088 19.0214C2.42173 20.8193 1.07031 27.237 1.07031 27.237C1.07031 27.237 6.55932 36.2624 6.55932 36.4886C6.55932 36.7148 20.1866 38.3639 20.1866 38.3639C20.3723 38.2706 20.5377 38.1413 20.6729 37.9835C20.8082 37.8257 20.9106 37.6425 20.9744 37.4447C21.0381 37.2469 21.0618 37.0383 21.0441 36.8313C21.0264 36.6242 20.9676 36.4227 20.8712 36.2385C20.2759 34.7264 26.0924 26.2071 26.0924 26.2071L35.8916 22.4029L38.5885 21.5575C38.5885 21.5575 39.666 20.8133 37.8562 19.7715C36.0464 18.7297 17.8588 1.50655 15.3644 4.17962Z" fill="#B0B0B0" stroke="#858585" stroke-width="0.2" stroke-miterlimit="10"/>
<path d="M13.4844 9.18041L22.4144 -0.362854H41.5843C41.5843 -0.362854 43.2513 0.0657891 43.2513 1.28623V16.4495C43.2513 16.4495 34.8213 23.1054 32.2375 24.1889C29.6537 25.2724 15.1573 16.9019 13.4844 9.18041Z" fill="#EBEBEC" stroke="#858585" stroke-width="0.2" stroke-miterlimit="10"/>
<path d="M15.1573 4.47723C15.1573 4.47723 1.57762 22.8791 1.14302 23.0339C0.708425 23.1887 2.42895 32.6486 4.39952 34.1608C6.37009 35.6729 16.5563 39.8403 16.5563 39.8403L38.173 21.8194C38.173 21.8194 28.6476 25.3914 21.5512 18.1521C14.4548 10.9128 14.55 7.35867 15.1573 4.47723Z" fill="#EBEBEC" stroke="#858585" stroke-width="0.2" stroke-miterlimit="10"/>
<path d="M35.589 29.0825C35.5902 29.7259 35.4004 30.3552 35.0436 30.8906C34.6869 31.4261 34.1793 31.8436 33.5851 32.0904C32.9909 32.3372 32.3368 32.402 31.7057 32.2768C31.0746 32.1516 30.4949 31.8419 30.04 31.3869C29.585 30.932 29.2753 30.3522 29.1501 29.7211C29.0248 29.09 29.0897 28.436 29.3365 27.8418C29.5832 27.2476 30.0008 26.74 30.5362 26.3832C31.0717 26.0265 31.701 25.8367 32.3444 25.8379C33.2044 25.8395 34.0288 26.1818 34.6369 26.79C35.2451 27.3981 35.5874 28.2225 35.589 29.0825Z" fill="#EBEBEC" stroke="#858585" stroke-width="0.17" stroke-miterlimit="10"/>
<path d="M33.9281 19.0213C33.9293 19.3362 33.8369 19.6443 33.6627 19.9066C33.4885 20.1689 33.2403 20.3736 32.9496 20.4946C32.6589 20.6157 32.3388 20.6477 32.0299 20.5865C31.721 20.5254 31.4373 20.3739 31.2146 20.1512C30.9919 19.9286 30.8404 19.6448 30.7793 19.3359C30.7181 19.027 30.7501 18.7069 30.8712 18.4162C30.9922 18.1255 31.1969 17.8773 31.4592 17.7031C31.7215 17.5289 32.0296 17.4365 32.3445 17.4377C32.764 17.4393 33.1659 17.6066 33.4626 17.9033C33.7592 18.1999 33.9265 18.6018 33.9281 19.0213Z" fill="#EBEBEC" stroke="#858585" stroke-width="0.17" stroke-miterlimit="10"/>
<path d="M28.3676 36.3337C28.3664 36.6476 28.2723 36.9541 28.0972 37.2146C27.9221 37.4751 27.6738 37.6779 27.3836 37.7975C27.0934 37.917 26.7742 37.948 26.4665 37.8865C26.1587 37.825 25.876 37.6737 25.654 37.4517C25.4321 37.2298 25.2808 36.9471 25.2193 36.6393C25.1578 36.3315 25.1888 36.0124 25.3083 35.7222C25.4279 35.432 25.6307 35.1837 25.8912 35.0086C26.1517 34.8335 26.4582 34.7394 26.7721 34.7382C27.1952 34.7382 27.601 34.9063 27.9003 35.2055C28.1995 35.5047 28.3676 35.9106 28.3676 36.3337Z" fill="#EBEBEC" stroke="#858585" stroke-width="0.17" stroke-miterlimit="10"/>
<path d="M41.357 25.8379C41.357 26.1535 41.2635 26.462 41.0881 26.7244C40.9128 26.9867 40.6636 27.1912 40.3721 27.312C40.0806 27.4328 39.7597 27.4643 39.4503 27.4028C39.1408 27.3412 38.8565 27.1893 38.6333 26.9661C38.4102 26.743 38.2582 26.4587 38.1967 26.1492C38.1351 25.8397 38.1667 25.5189 38.2875 25.2274C38.4082 24.9358 38.6127 24.6866 38.8751 24.5113C39.1375 24.336 39.446 24.2424 39.7615 24.2424C40.1847 24.2424 40.5905 24.4105 40.8897 24.7097C41.1889 25.009 41.357 25.4148 41.357 25.8379Z" fill="#EBEBEC" stroke="#858585" stroke-width="0.17" stroke-miterlimit="10"/>
<path d="M11.1021 5.22141C11.2241 5.62249 11.2245 6.05076 11.1031 6.45204C10.9818 6.85333 10.7441 7.2096 10.4202 7.4758C10.0963 7.742 9.70078 7.90616 9.28359 7.94752C8.86639 7.98888 8.44631 7.90559 8.07646 7.70817C7.70661 7.51075 7.40362 7.20808 7.20582 6.83844C7.00801 6.4688 6.92428 6.0488 6.9652 5.63157C7.00613 5.21433 7.16988 4.81861 7.43573 4.49445C7.70159 4.17029 8.05762 3.93226 8.45877 3.81046C8.9964 3.64724 9.57684 3.70417 10.0725 3.96875C10.5682 4.23333 10.9385 4.6839 11.1021 5.22141Z" fill="#EBEBEC" stroke="#858585" stroke-width="0.17" stroke-miterlimit="10"/>
<path d="M9.9472 13.1691C10.0814 13.6089 10.0354 14.0839 9.8194 14.4897C9.60336 14.8956 9.23495 15.199 8.79522 15.3332C8.35549 15.4674 7.88045 15.4214 7.47461 15.2054C7.06877 14.9893 6.76538 14.6209 6.63117 14.1812C6.56471 13.9635 6.5418 13.7348 6.56372 13.5082C6.58565 13.2816 6.652 13.0616 6.75897 12.8606C6.86594 12.6596 7.01144 12.4817 7.18717 12.337C7.3629 12.1923 7.56541 12.0836 7.78315 12.0172C8.22288 11.8829 8.69792 11.9289 9.10375 12.145C9.30471 12.2519 9.48262 12.3974 9.62734 12.5732C9.77206 12.7489 9.88074 12.9514 9.9472 13.1691Z" fill="#EBEBEC" stroke="#858585" stroke-width="0.17" stroke-miterlimit="10"/>
<path d="M14.9951 34.4525C14.9951 34.826 14.8843 35.1911 14.6767 35.5016C14.469 35.8121 14.1739 36.0539 13.8288 36.1966C13.4836 36.3393 13.1038 36.3763 12.7376 36.303C12.3713 36.2297 12.035 36.0494 11.7714 35.7848C11.5077 35.5203 11.3284 35.1835 11.2562 34.817C11.1841 34.4505 11.2223 34.0709 11.3661 33.7261C11.5098 33.3814 11.7526 33.0871 12.0638 32.8804C12.3749 32.6738 12.7404 32.5641 13.1139 32.5653C13.6134 32.5668 14.0919 32.7664 14.4445 33.1201C14.7971 33.4739 14.9951 33.953 14.9951 34.4525Z" fill="#EBEBEC" stroke="#858585" stroke-width="0.17" stroke-miterlimit="10"/>
<path d="M3.0416 19.0214C3.0416 19.0214 1.21391 24.7723 6.78627 31.5532C12.0848 38.0126 20.1873 38.3698 20.1873 38.3698L16.0616 42.4419H1.51158C0.303043 42.4419 -0.149414 41.4894 -0.149414 39.9237V23.2542L3.0416 19.0214Z" fill="#EBEBEC" stroke="#858585" stroke-width="0.2" stroke-miterlimit="10"/>
</g>
</svg>
