<svg width="43" height="40" viewBox="0 0 43 40" fill="none" xmlns="http://www.w3.org/2000/svg">
<path d="M42.7055 38.4407C42.6945 38.8556 42.52 39.2494 42.2199 39.5361C41.9198 39.8228 41.5184 39.9793 41.1035 39.9713H2.25621C1.8418 39.9792 1.44111 39.8226 1.14195 39.5358C0.842786 39.2489 0.669535 38.8551 0.660156 38.4407V1.84462C0.669535 1.43023 0.842786 1.03646 1.14195 0.749579C1.44111 0.462693 1.8418 0.306088 2.25621 0.314075H41.1035C41.5184 0.30607 41.9198 0.462488 42.2199 0.749211C42.52 1.03594 42.6945 1.4297 42.7055 1.84462V38.4407Z" fill="#75AC40"/>
<mask id="mask0" mask-type="alpha" maskUnits="userSpaceOnUse" x="0" y="0" width="43" height="40">
<path d="M42.7055 38.4407C42.6945 38.8556 42.52 39.2494 42.2199 39.5361C41.9198 39.8228 41.5184 39.9793 41.1035 39.9713H2.25621C1.8418 39.9792 1.44111 39.8226 1.14195 39.5358C0.842786 39.2489 0.669535 38.8551 0.660156 38.4407V1.84462C0.669535 1.43023 0.842786 1.03646 1.14195 0.749579C1.44111 0.462693 1.8418 0.306088 2.25621 0.314075H41.1035C41.5184 0.30607 41.9198 0.462488 42.2199 0.749211C42.52 1.03594 42.6945 1.4297 42.7055 1.84462V38.4407Z" fill="#75AC40"/>
</mask>
<g mask="url(#mask0)">
<path d="M29.0206 28.2748L43.1588 36.6124V41.0551C43.1681 41.275 43.1316 41.4944 43.0517 41.6995C42.9717 41.9045 42.8501 42.0908 42.6945 42.2464C42.5389 42.402 42.3526 42.5236 42.1476 42.6036C41.9425 42.6835 41.7231 42.72 41.5032 42.7107H1.49464C1.26997 42.7327 1.04324 42.704 0.831073 42.6269C0.618904 42.5498 0.426678 42.4263 0.26849 42.2652C0.110302 42.1042 -0.0098362 41.9098 -0.0831167 41.6962C-0.156397 41.4827 -0.180961 41.2555 -0.155008 41.0313V4.91162C-0.155008 4.91162 14.674 13.0586 16.2165 15.3396C17.7589 17.6205 25.6439 26.9884 29.0206 28.2748Z" fill="#D8D8D8" stroke="#B0B0B0" stroke-width="0.2" stroke-miterlimit="10"/>
<path d="M18.8785 16.6498C18.8785 16.6498 17.1812 13.7197 14.6084 15.6493C12.5359 17.2096 6.47332 21.3963 6.93189 26.6847C7.39046 31.9731 10.7136 36.7374 18.8844 35.8382C21.2249 35.3022 26.4776 33.1106 28.3059 27.7447C28.5858 24.904 25.221 24.2251 25.1376 24.6122L18.8785 16.6498Z" fill="#C6C6C4" stroke="#B0B0B0" stroke-width="0.2" stroke-miterlimit="10"/>
<path d="M25.2025 9.78909C27.0963 8.95533 35.1064 13.6422 33.0756 17.1143C31.5033 18.4959 27.7157 12.0224 27.7157 12.0224L23.6064 12.7013L24.0055 10.4859C24.0055 10.4859 24.6546 10.0928 25.2025 9.78909Z" fill="#93B93A"/>
<path d="M34.548 1.04649C35.7749 0.266333 42.0697 1.91003 41.0811 4.35175C40.1581 5.4416 36.6265 2.047 36.6265 2.047L33.8096 3.10707V1.68372C33.8096 1.68372 34.2026 1.33831 34.548 1.04649Z" fill="#93B93A"/>
<path d="M30.11 4.66742C31.2594 4.16121 34.6659 5.69175 36.7086 7.75233C38.0248 9.08039 32.6232 6.89475 32.6232 6.89475L28.4961 7.59749L28.8356 5.75726C29.2149 5.34391 29.6428 4.97797 30.11 4.66742Z" fill="#93B93A"/>
<path d="M35.5186 0.677304C35.5186 0.677304 20.892 16.3996 18.0394 18.0255C15.1867 19.6513 12.8999 20.4076 11.1966 22.903C9.49336 25.3983 9.6482 29.8232 12.1435 31.979C14.6388 34.1349 20.63 34.7781 25.1323 24.6122C28.4793 18.5198 43.1594 3.27983 43.1594 3.27983V1.16565C43.0677 0.753753 42.8196 0.39362 42.4673 0.161353C42.115 -0.0709127 41.6862 -0.157114 41.2715 -0.0790352C39.9315 0.022207 36.2987 -0.0790352 36.2987 -0.0790352L35.5186 0.677304Z" fill="#EBEBEC" stroke="#B0B0B0" stroke-width="0.2" stroke-miterlimit="10"/>
<path d="M27.7752 6.35281C25.3215 10.0809 28.7459 17.4656 31.4913 18.4959L33.0755 17.1262C29.4605 13.803 27.1201 8.06797 30.3003 4.58405C29.3732 5.04127 28.5216 5.63777 27.7752 6.35281Z" fill="#75AC40"/>
<path d="M32.4688 2.55928C30.432 5.65611 36.042 12.0225 36.042 12.0225C36.042 12.0225 31.9447 3.9469 34.6663 0.998962C33.8626 1.41071 33.1225 1.93623 32.4688 2.55928Z" fill="#75AC40"/>
<path d="M22.4159 11.7067C19.9623 15.4348 22.0586 22.6052 26.2453 23.7962C26.71 23.3294 27.2033 22.8918 27.7222 22.486C26.013 22.5456 21.7668 13.4219 24.941 9.93201C24.0149 10.3932 23.1636 10.9915 22.4159 11.7067Z" fill="#75AC40"/>
</g>
</svg>
