<svg width="19" height="19" viewBox="0 0 19 19" fill="none" xmlns="http://www.w3.org/2000/svg">
<path d="M13.5325 0.5H5.46724C2.72831 0.5 0.5 2.72841 0.5 5.46735V13.5327C0.5 16.2717 2.72831 18.5 5.46724 18.5H13.5325C16.2717 18.5 18.5 16.2716 18.5 13.5327V5.46735C18.5001 2.72841 16.2717 0.5 13.5325 0.5ZM16.9031 13.5327C16.9031 15.3911 15.3911 16.903 13.5327 16.903H5.46724C3.60892 16.9031 2.09705 15.3911 2.09705 13.5327V5.46735C2.09705 3.60903 3.60892 2.09705 5.46724 2.09705H13.5325C15.391 2.09705 16.903 3.60903 16.903 5.46735V13.5327H16.9031Z" fill="#1B262D"/>
<path d="M9.49947 4.8623C6.94196 4.8623 4.86133 6.94294 4.86133 9.50045C4.86133 12.0579 6.94196 14.1384 9.49947 14.1384C12.057 14.1384 14.1376 12.0579 14.1376 9.50045C14.1376 6.94294 12.057 4.8623 9.49947 4.8623ZM9.49947 12.5412C7.82268 12.5412 6.45838 11.1771 6.45838 9.50034C6.45838 7.82344 7.82257 6.45925 9.49947 6.45925C11.1764 6.45925 12.5406 7.82344 12.5406 9.50034C12.5406 11.1771 11.1763 12.5412 9.49947 12.5412Z" fill="#1B262D"/>
<path d="M14.3333 3.50781C14.0256 3.50781 13.7233 3.63238 13.506 3.85065C13.2876 4.06784 13.1621 4.37022 13.1621 4.67898C13.1621 4.98678 13.2877 5.28905 13.506 5.50732C13.7232 5.72451 14.0256 5.85015 14.3333 5.85015C14.642 5.85015 14.9434 5.72451 15.1616 5.50732C15.3799 5.28905 15.5044 4.98668 15.5044 4.67898C15.5044 4.37022 15.3799 4.06784 15.1616 3.85065C14.9444 3.63238 14.642 3.50781 14.3333 3.50781Z" fill="#1B262D"/>
</svg>
