<svg width="50" height="50" viewBox="0 0 50 50" fill="none" xmlns="http://www.w3.org/2000/svg">
<mask id="mask0" mask-type="alpha" maskUnits="userSpaceOnUse" x="0" y="0" width="50" height="50">
<circle cx="25" cy="25" r="25" fill="white"/>
</mask>
<g mask="url(#mask0)">
<path d="M43.3531 18.6744C43.1539 18.5594 42.9502 18.4563 42.7427 18.3651L44.811 14.7826L43.6277 14.0993L41.4039 17.9512C40.5128 17.7847 39.5886 17.8185 38.687 18.0601C38.4764 18.1165 38.2704 18.1834 38.0696 18.2603L39.2111 16.2831L38.0278 15.5998L36.8836 17.5816C36.7081 16.4692 36.2302 15.4104 35.4853 14.5376L37.7106 10.6832L36.5273 10L34.4587 13.5829C34.2769 13.4492 34.0859 13.324 33.8859 13.2086C33.5591 13.0198 33.1411 13.1319 32.9525 13.4586L31.586 15.8255C30.9522 16.9233 30.6965 18.1374 30.7782 19.3159C30.6779 19.2499 30.5751 19.1864 30.4697 19.1256C30.1429 18.9368 29.7249 19.0488 29.5364 19.3756L28.1698 21.7425C27.536 22.8403 27.2803 24.0543 27.362 25.2328C27.2614 25.1667 27.1586 25.1032 27.0535 25.0426C26.7266 24.8539 26.3088 24.9659 26.1202 25.2927L24.7537 27.6595C24.6085 27.9109 24.4821 28.1707 24.3748 28.4367C24.2816 28.2227 24.1758 28.0126 24.0573 27.8075L22.6908 25.4407C22.5023 25.114 22.0845 25.0018 21.7575 25.1906C21.6524 25.2513 21.5496 25.3148 21.449 25.3808C21.5307 24.2023 21.2749 22.9882 20.6411 21.8904L19.2746 19.5236C19.0861 19.1968 18.6683 19.0847 18.3413 19.2735C18.2362 19.3342 18.1334 19.3977 18.0328 19.4637C18.1145 18.2852 17.8587 17.0711 17.2249 15.9733L15.8584 13.6065C15.6699 13.2798 15.2522 13.1675 14.9251 13.3564C14.7251 13.4719 14.5342 13.597 14.3523 13.7307L12.2837 10.1478L11.1004 10.8311L13.3257 14.6854C12.5808 15.5582 12.1029 16.6171 11.9274 17.7295L10.7832 15.7479L9.5999 16.4311L10.7414 18.4084C10.5406 18.3315 10.3346 18.2646 10.124 18.2082C9.2225 17.9666 8.29825 17.9328 7.40714 18.0993L5.18328 14.2474L4 14.9307L6.06833 18.5131C5.8608 18.6044 5.65711 18.7075 5.45794 18.8225C5.13119 19.0111 5.01913 19.429 5.20788 19.7558L5.69289 20.5958L6.87618 19.9126L6.75695 19.7059C7.71109 19.3222 8.75909 19.2572 9.77037 19.5281C11.0043 19.8588 12.0356 20.6501 12.6744 21.7565L13.675 23.4895C11.504 24.3588 8.96039 23.5224 7.75781 21.4395L6.57436 22.1227C7.20814 23.2205 8.13171 24.049 9.19321 24.5675C9.08568 24.6215 8.97935 24.6789 8.87422 24.7396C8.54746 24.9282 8.43541 25.3461 8.62415 25.6729L9.99055 28.0397C10.6099 29.1125 11.5164 29.9549 12.6051 30.4866C12.4991 30.5401 12.3941 30.5967 12.2903 30.6566C11.9636 30.8452 11.8515 31.2631 12.0403 31.5899L13.4066 33.9567C14.026 35.0295 14.9325 35.8719 16.0213 36.4036C15.9152 36.4571 15.8103 36.5137 15.7065 36.5736C15.3798 36.7623 15.2677 37.1801 15.4564 37.5069L16.8228 39.8737C17.9605 41.8443 20.0316 42.9471 22.1586 42.9471C22.529 42.9471 22.901 42.9136 23.2701 42.8455L27.7205 50.6551C27.842 50.8683 28.0686 51 28.314 51H31.4596C31.703 51 31.928 50.8705 32.0503 50.6601C32.1726 50.4497 32.1737 50.19 32.0532 49.9786L30.1063 46.5624L28.9192 47.2389L30.2838 49.6334H28.711L24.6277 42.468L25.2213 42.1253C25.2218 42.125 25.2222 42.1247 25.2227 42.1244C25.2233 42.1241 25.224 42.1236 25.2246 42.1233L25.811 41.7847L28.1403 45.8722L29.3275 45.1956L27.8916 42.6759C29.6051 42.3252 31.104 41.2567 31.9879 39.7255L33.3544 37.3586C33.5431 37.0319 33.4311 36.614 33.1043 36.4253C33.0002 36.3652 32.8946 36.3084 32.7877 36.2549C33.8778 35.721 34.7887 34.8744 35.4042 33.8085L36.7707 31.4417C36.9593 31.115 36.8473 30.6971 36.5205 30.5084C36.4166 30.4485 36.3116 30.3918 36.2054 30.3383C37.1674 29.8672 38.0172 29.1393 38.6422 28.1814L37.4978 27.4347C36.2382 29.3652 33.8037 30.0943 31.7196 29.2585L32.7202 27.5254C33.359 26.4191 34.3903 25.6276 35.6243 25.297C36.6356 25.0261 37.6835 25.0911 38.6377 25.4749L38.2991 26.0617L39.4824 26.745L40.1869 25.5247C40.3757 25.1979 40.2636 24.7801 39.9369 24.5914C39.8317 24.5307 39.7253 24.4734 39.6178 24.4192C40.6793 23.9006 41.6029 23.0722 42.2366 21.9745L43.6031 19.6077C43.7919 19.2809 43.6799 18.863 43.3531 18.6744ZM32.7695 16.5086L33.77 14.7756C35.6083 16.2209 36.1559 18.8421 34.9532 20.9251L33.9527 22.658C32.1144 21.2128 31.5669 18.5916 32.7695 16.5086ZM14.9742 24.3734C15.0782 24.3133 15.1797 24.2507 15.2788 24.1856C15.2626 24.4196 15.2598 24.6536 15.2704 24.8865C15.074 24.7608 14.8701 24.6462 14.6593 24.5433C14.7652 24.49 14.8702 24.4334 14.9742 24.3734ZM18.3904 30.2904C18.4944 30.2303 18.5958 30.1677 18.695 30.1027C18.6788 30.3367 18.676 30.5707 18.6866 30.8036C18.4903 30.6779 18.2863 30.5634 18.0756 30.4604C18.1817 30.407 18.2867 30.3502 18.3904 30.2904ZM21.8065 36.2074C21.9117 36.1467 22.0145 36.0832 22.1151 36.0172C22.0989 36.2515 22.096 36.4872 22.1067 36.7231C21.9092 36.5965 21.7039 36.4811 21.4917 36.3775C21.5979 36.324 21.7029 36.2673 21.8065 36.2074ZM25.1069 40.5572L24.1064 38.8243C22.9037 36.7413 23.4513 34.1201 25.2896 32.6748L26.2901 34.4078C27.4926 36.4908 26.9452 39.1119 25.1069 40.5572ZM30.4206 30.1423C30.5246 30.2023 30.6296 30.2589 30.7355 30.3122C30.5247 30.4151 30.3207 30.5298 30.1244 30.6554C30.135 30.4225 30.1322 30.1886 30.116 29.9545C30.2151 30.0196 30.3166 30.0822 30.4206 30.1423ZM29.3533 22.4256L30.3539 20.6926C32.1921 22.1379 32.7397 24.7591 31.5371 26.8421L30.5365 28.575C28.6982 27.1298 28.1507 24.5086 29.3533 22.4256ZM25.9371 28.3427L26.9379 26.6093C27.7475 27.2438 28.3277 28.1189 28.5986 29.1301C28.9293 30.364 28.7596 31.6529 28.1209 32.7593L27.5181 33.8032C27.5034 33.7769 27.4885 33.7507 27.4735 33.7246L26.107 31.3578C25.9432 31.074 25.6064 30.9521 25.3063 31.0488C25.2438 30.1093 25.4602 29.1688 25.9371 28.3427ZM21.8732 26.7574L22.8739 28.4908C23.5127 29.5971 23.6824 30.886 23.3518 32.12C23.0808 33.1312 22.5005 34.0063 21.6911 34.6408L20.6903 32.9073C20.0516 31.801 19.8818 30.5122 20.2125 29.2782C20.4833 28.2669 21.0636 27.3918 21.8732 26.7574ZM18.457 20.8403L19.4577 22.5737C20.6604 24.6567 20.1129 27.2779 18.2745 28.7232L17.274 26.9902C16.6353 25.8838 16.4655 24.595 16.7962 23.361C17.0671 22.3499 17.6474 21.4748 18.457 20.8403ZM15.041 14.9237L16.0416 16.6567C17.2441 18.7397 16.6967 21.3609 14.8584 22.8062L13.8578 21.0732C12.6552 18.9902 13.2027 16.3691 15.041 14.9237ZM11.1739 27.3564L10.1731 25.6229C11.1272 25.2393 12.1752 25.1742 13.1865 25.445C14.4204 25.7757 15.4518 26.5671 16.0905 27.6734L17.0911 29.4064C14.9202 30.2759 12.3764 29.4394 11.1739 27.3564ZM14.5901 33.2734L13.5892 31.5399C14.5434 31.1562 15.5915 31.0912 16.6027 31.3621C17.8366 31.6928 18.8679 32.4842 19.5067 33.5905L20.5075 35.324C19.5532 35.7078 18.5052 35.7727 17.4941 35.5019C16.2602 35.1712 15.2288 34.3797 14.5901 33.2734ZM18.0063 39.1904L17.0054 37.4569C17.9596 37.0733 19.0076 37.0082 20.0189 37.2791C21.2528 37.6098 22.2841 38.4012 22.9229 39.5075L23.9235 41.2405C21.7526 42.1098 19.2088 41.2734 18.0063 39.1904ZM30.8047 39.0423C30.0409 40.3653 28.6867 41.2442 27.1688 41.4072L26.821 40.7969C27.6664 39.8069 28.1683 38.5773 28.2748 37.3016C29.4118 36.8546 30.6804 36.8624 31.8048 37.3101L30.8047 39.0423ZM34.2209 33.1254C33.0198 35.2059 30.5072 36.063 28.3035 35.1758L29.3043 33.4425C29.9431 32.3362 30.9744 31.5448 32.2083 31.2141C33.2197 30.9431 34.2675 31.0081 35.2218 31.392L34.2209 33.1254ZM33.5283 24.0349C33.6286 24.1009 33.7314 24.1645 33.8368 24.2253C33.9409 24.2853 34.0458 24.3419 34.1518 24.3952C33.9396 24.4988 33.7343 24.6143 33.5367 24.7409C33.5474 24.505 33.5445 24.2693 33.5283 24.0349ZM41.0533 21.2913C39.8507 23.3743 37.3068 24.2107 35.1361 23.3413L36.1367 21.6084C36.7754 20.5021 37.8068 19.7107 39.0407 19.38C40.0521 19.109 41.1 19.174 42.0541 19.5578L41.0533 21.2913Z" fill="#93BA1F"/>
<path d="M39.13 41.8708L38.6385 42.7219C38.2745 42.3712 38.0113 41.9271 37.8772 41.4263C37.6826 40.7 37.7825 39.9414 38.1583 39.2902L38.6494 38.4398C38.9783 38.7575 39.2267 39.1529 39.37 39.5954L40.6701 39.1744C40.351 38.1887 39.6807 37.3605 38.7829 36.8421C38.6259 36.7515 38.4393 36.7268 38.2645 36.7738C38.0894 36.8207 37.9402 36.9353 37.8497 37.0922L36.975 38.607C36.4167 39.5743 36.2683 40.7011 36.5573 41.7799C36.8464 42.8588 37.5383 43.7605 38.5056 44.3189C38.6132 44.3811 38.7306 44.4106 38.8465 44.4106C39.0827 44.4106 39.3123 44.288 39.4389 44.0689L40.3134 42.5541C40.6256 42.0135 40.8097 41.4258 40.8604 40.8073L39.4984 40.6955C39.4642 41.1111 39.3403 41.5066 39.13 41.8708Z" fill="#93BA1F"/>
<path d="M7.57013 36.385L5.87621 35.9507C5.70053 35.9059 5.51435 35.9326 5.3584 36.0249C5.20245 36.1172 5.08955 36.2681 5.04445 36.4436C4.47216 38.6767 5.82326 40.9593 8.05634 41.5318L9.75017 41.9661C9.80594 41.9804 9.86273 41.9874 9.91936 41.9874C10.041 41.9874 10.1616 41.9549 10.268 41.892C10.4238 41.7996 10.5368 41.6489 10.5818 41.4733C11.1543 39.2401 9.80312 36.9575 7.57013 36.385ZM9.34757 40.4521L8.39565 40.208C7.11919 39.8808 6.27078 38.7233 6.27889 37.4646L7.23073 37.7087C8.50736 38.0359 9.35586 39.1936 9.34757 40.4521Z" fill="#93BA1F"/>
<path d="M38.71 14.4165L39.3932 13.2331L40.5765 13.9163L39.8933 15.0997L38.71 14.4165Z" fill="#93BA1F"/>
<path d="M8.2334 14.0642L9.41669 13.381L10.0999 14.5644L8.91664 15.2476L8.2334 14.0642Z" fill="#93BA1F"/>
</g>
</svg>
