<svg width="30" height="30" viewBox="0 0 30 30" fill="none" xmlns="http://www.w3.org/2000/svg">
<path d="M25 5.297V2.5C24.9983 1.12 23.88 0.00175 22.5 0H2.5C1.12 0.00175 0.00175 1.12 0 2.5V13.5C0.00387501 14.7769 0.97175 15.8448 2.242 15.9743L4.1215 20.8531C4.618 22.1414 6.06475 22.7831 7.35313 22.2873L19.09 17.766C18.279 19.8844 18.5098 22.2608 19.7128 24.1836L20 24.643V29.5C20 29.7763 20.2238 30 20.5 30H29.5C29.7763 30 30 29.7763 30 29.5V12.9956C29.9953 11.2665 29.3069 9.60975 28.0844 8.38688L25 5.297ZM25 8.28725L26.5175 12.2265C26.8149 12.9998 26.4295 13.8674 25.6564 14.165L24.789 14.5C24.9275 14.1848 24.9993 13.844 25 13.5V8.28725ZM1 13.5V2.5C1 1.67175 1.67175 1 2.5 1H22.5C23.3283 1 24 1.67175 24 2.5V5.678H23.9956L24 5.68938V13.5C23.9961 13.5873 23.9848 13.6738 23.966 13.759L19.386 9.1785C18.3565 8.17275 16.7153 8.165 15.6765 9.16025C14.6375 10.1561 14.5751 11.7961 15.536 12.8674L17.4885 15H2.5C1.67175 15 1 14.3283 1 13.5ZM7.4055 16L3.85 17.3689L3.324 16H7.4055ZM6.9935 21.3539C6.2205 21.6519 5.35238 21.2665 5.0545 20.4935L4.211 18.3L10.1795 16V15.997H18.405L19.0549 16.7055L6.9935 21.3539ZM29 29H21V25H29V29ZM29 24H20.7775L20.5606 23.6535C19.3415 21.7053 19.293 19.2445 20.434 17.25C20.542 17.0613 20.5155 16.8243 20.3685 16.664L16.2711 12.194C15.6601 11.5253 15.6945 10.4914 16.3486 9.865C17.003 9.2385 18.0374 9.24875 18.6789 9.88775L26.6465 17.8535L27.3535 17.1465L25.5035 15.2965L26.0165 15.0965C27.3038 14.5999 27.9453 13.1544 27.45 11.8664L25.7576 7.47188L27.3774 9.095C28.4124 10.1298 28.996 11.532 29 12.9956V24Z" fill="#8DA6A2"/>
<path d="M5.7 7.00006C6.418 7.00006 7 6.41806 7 5.70006V3.30006C7 2.58206 6.418 2.00006 5.7 2.00006H3.3C2.582 2.00006 2 2.58206 2 3.30006V5.70006C2 6.41806 2.582 7.00006 3.3 7.00006H5.7ZM3 5.70006V5.00006H4V4.00006H3V3.30006C3 3.13444 3.13438 3.00006 3.3 3.00006H5.7C5.86563 3.00006 6 3.13444 6 3.30006V4.00006H5V5.00006H6V5.70006C6 5.86569 5.86563 6.00006 5.7 6.00006H3.3C3.13438 6.00006 3 5.86569 3 5.70006Z" fill="#8DA6A2"/>
<path d="M2.50195 8.5H4.50195V9.5H2.50195V8.5Z" fill="#8DA6A2"/>
<path d="M2.50195 11.4999H4.50195V12.4999H2.50195V11.4999Z" fill="#8DA6A2"/>
<path d="M11.5 11.4999H13.5V12.4999H11.5V11.4999Z" fill="#8DA6A2"/>
<path d="M5.5 8.5H7.5V9.5H5.5V8.5Z" fill="#8DA6A2"/>
<path d="M8.5 8.5H10.5V9.5H8.5V8.5Z" fill="#8DA6A2"/>
<path d="M11.5 8.5H13.5V9.5H11.5V8.5Z" fill="#8DA6A2"/>
<path d="M21 2.50012H22V4.00012H21V2.50012Z" fill="#8DA6A2"/>
<path d="M19 2.50012H20V4.00012H19V2.50012Z" fill="#8DA6A2"/>
<path d="M17 2.50012H18V4.00012H17V2.50012Z" fill="#8DA6A2"/>
<path d="M15 2.50012H16V4.00012H15V2.50012Z" fill="#8DA6A2"/>
<path d="M22 26.0001H23V27.0001H22V26.0001Z" fill="#8DA6A2"/>
</svg>
