<svg width="550" height="89" viewBox="0 0 550 89" fill="none" xmlns="http://www.w3.org/2000/svg">
<path d="M7.38134 31.9531C7.35666 34.8091 7.51683 37.6634 7.86054 40.4931C8.07188 42.7546 8.55545 44.9731 9.29801 47.0872C9.864 48.7541 10.8054 50.2258 12.0294 51.3572C13.2523 52.449 14.7839 53.0057 16.3419 52.9247C17.9743 52.9338 19.5957 52.6229 21.1337 52.0058C22.8069 51.3099 24.4125 50.4224 25.9254 49.3574L27.5547 58.3838C25.9199 59.9453 24.0547 61.171 22.0441 62.0051C19.949 62.9103 17.723 63.3685 15.4794 63.3564C12.8591 63.4593 10.2767 62.6271 8.10007 60.9782C6.01533 59.364 4.35899 57.1406 3.30831 54.5462C2.01944 51.4904 1.16253 48.2259 0.768681 44.8712C0.232086 40.8825 -0.0242173 36.8522 0.00205471 32.8179C0.0239703 29.2022 0.248029 25.5917 0.6729 22.0078C1.04409 18.4057 1.85018 14.8778 3.06878 11.522C4.1174 8.50163 5.7551 5.78609 7.86054 3.57662C10.0575 1.41976 12.9051 0.297447 15.8148 0.441683C17.4241 0.439868 19.0295 0.620963 20.6066 0.9822C22.4596 1.44466 24.2271 2.26773 25.8297 3.41447L24.488 13.0895C23.1742 12.2717 21.7493 11.7055 20.2712 11.4139C19.1301 11.2074 17.9768 11.099 16.8211 11.0896C15.3315 11.1178 13.8833 11.6473 12.6624 12.6104C11.4415 13.5735 10.5035 14.9261 9.96886 16.4947C8.12736 21.3764 7.24466 26.65 7.38134 31.9531Z" fill="#93BA1F"/>
<path d="M55.0576 62.5459L55.0576 19.3056L54.7701 19.3056L50.5055 31.9534C49.8346 33.683 49.02 36.0612 48.0138 39.088L44.8032 48.2766L41.7845 56.8706L39.724 62.6L32.6801 62.6L32.6801 1.84726L40.1073 1.84726L40.1073 44.5471L40.4427 44.5471L42.0719 39.6285C42.5511 38.007 43.1262 36.3855 43.7012 34.764L46.8637 26.0078L49.9784 17.0354L52.9013 8.76571L55.2972 1.84726L62.4849 1.84726L62.4849 62.5459L55.0576 62.5459Z" fill="#93BA1F"/>
<path d="M90.5641 62.5458L90.5641 11.414L80.9806 11.414L80.9806 18.1163C80.9806 24.7104 80.5493 30.7641 80.2618 36.2232C80.0871 41.0359 79.5744 45.8253 78.7285 50.5466C78.1508 54.1301 76.9804 57.5589 75.2784 60.654C73.6917 63.2145 71.4014 65.114 68.7616 66.059L66.8928 56.8705C68.5652 55.7408 69.9643 54.1626 70.9658 52.2762C72.0501 50.0398 72.7799 47.607 73.1221 45.0875C73.6496 41.3663 73.9696 37.6114 74.0805 33.845L74.5596 17.2515L74.9909 1.5228L98.231 1.5228L98.231 62.5458L90.5641 62.5458Z" fill="#93BA1F"/>
<path d="M132.78 53.0869L137.237 53.0869L137.668 60.8161C136.679 61.7403 135.54 62.438 134.314 62.87C133.167 63.2829 131.972 63.5014 130.768 63.5186C129.521 63.5852 128.3 63.1004 127.366 62.1673C126.304 60.3671 125.814 58.2142 125.976 56.0597C124.965 57.7164 123.774 59.2236 122.43 60.5459C121.433 61.4954 120.319 62.2782 119.124 62.87C118.263 63.3292 117.34 63.6216 116.393 63.7348C115.754 63.7769 115.114 63.7769 114.476 63.7348C112.747 63.7588 111.061 63.1311 109.684 61.9512C108.374 60.7811 107.323 59.2819 106.617 57.5731C105.878 55.7508 105.362 53.8232 105.084 51.8437C104.781 50.0619 104.621 48.2529 104.605 46.4387C104.554 43.8303 104.911 41.2322 105.659 38.7635C106.252 36.6756 107.213 34.745 108.486 33.0882C109.642 31.6004 111.062 30.4034 112.655 29.575C114.299 28.7129 116.069 28.1999 117.878 28.0615L125.976 27.0886L125.976 23.7375C126.174 20.4878 125.698 17.2308 124.586 14.2246C124.005 13.2472 123.198 12.4682 122.252 11.9727C121.305 11.4771 120.257 11.2839 119.22 11.414C117.453 11.4554 115.699 11.746 113.997 12.2788C112.189 12.8693 110.438 13.6661 108.774 14.657L108.103 10.333L107.432 5.9549C109.415 4.35544 111.616 3.13221 113.949 2.33353C116.224 1.48851 118.598 1.03302 120.993 0.982269C122.636 0.994667 124.263 1.3616 125.784 2.06328C127.328 2.78115 128.658 3.98126 129.618 5.52251C130.794 7.46753 131.624 9.65207 132.062 11.9545C132.646 15.1363 132.919 18.3806 132.876 21.6295L132.78 53.0869ZM117.926 35.3584C117.05 35.4162 116.197 35.6996 115.433 36.1868C114.668 36.674 114.013 37.352 113.517 38.169C112.52 40.1393 112.038 42.3883 112.128 44.655C112.007 47.1134 112.435 49.5666 113.374 51.7897C113.803 52.5881 114.42 53.2376 115.155 53.6667C115.891 54.0958 116.717 54.2879 117.543 54.222C119.018 54.1255 120.428 53.5007 121.568 52.4383C123.146 51.0088 124.52 49.3133 125.641 47.4116L125.641 34.3854L117.926 35.3584Z" fill="#93BA1F"/>
<path d="M184.675 62.5459L184.675 19.3056L179.883 31.9534L177.391 39.088L174.229 48.2766L171.21 56.8706C170.252 59.5191 169.581 61.4649 169.102 62.6L162.106 62.6L162.106 1.84726L169.533 1.84726L169.533 44.5471L170.3 44.5471L171.881 39.6285L173.558 34.764L176.673 26.0078L179.835 17.0354L182.71 8.76571L184.675 1.84726L192.054 1.84726L192.054 62.5459L184.675 62.5459Z" fill="#93BA1F"/>
<path d="M226.313 7.68459C227.619 5.70247 229.245 4.01554 231.105 2.71196C232.647 1.63128 234.417 1.03422 236.232 0.982345C238.474 0.898382 240.663 1.76632 242.365 3.41462C244.215 5.28929 245.602 7.67306 246.391 10.3331C247.451 13.4638 248.16 16.7324 248.499 20.0622C248.895 23.9918 249.087 27.9443 249.074 31.8992C249.09 36.0928 248.85 40.2827 248.355 44.4389C247.965 47.9322 247.16 51.3503 245.959 54.6004C245.043 57.2392 243.581 59.5927 241.695 61.4648C239.92 63.1248 237.674 64.0075 235.369 63.9511C234.667 63.9974 233.963 63.9974 233.261 63.9511C232.45 63.825 231.649 63.6262 230.865 63.3566C230.026 63.0291 229.209 62.6316 228.421 62.1675C227.579 61.6447 226.818 60.9691 226.169 60.1676L226.169 88.8143L218.742 88.8143L218.742 2.33361L225.834 2.33361L225.834 7.73865L226.313 7.68459ZM233.836 53.8437C234.879 53.8384 235.898 53.4807 236.759 52.8167C237.875 51.8616 238.75 50.5948 239.299 49.1413C240.137 46.8918 240.717 44.5304 241.024 42.1148C241.478 38.5348 241.686 34.9207 241.647 31.3047C241.675 28.0517 241.499 24.8005 241.12 21.5756C240.853 19.4651 240.321 17.4084 239.538 15.4679C239.016 14.1905 238.185 13.1043 237.142 12.3329C236.221 11.692 235.158 11.355 234.076 11.36C233.363 11.3751 232.661 11.5593 232.015 11.9005C231.239 12.2356 230.499 12.6709 229.811 13.1977C229.076 13.7179 228.386 14.3151 227.751 14.9814C227.173 15.5644 226.673 16.2379 226.265 16.9813L226.265 50.2223C226.666 50.7836 227.153 51.2595 227.703 51.6276C228.291 52.1049 228.916 52.521 229.571 52.8708C230.242 53.2512 230.949 53.5414 231.68 53.7356C232.392 53.8733 233.116 53.9097 233.836 53.8437Z" fill="#93BA1F"/>
<path d="M286.74 32.2775C286.764 36.2062 286.492 40.13 285.926 44.0065C285.458 47.4842 284.555 50.8693 283.242 54.0598C282.169 56.7873 280.525 59.18 278.45 61.0324C276.24 62.7055 273.638 63.5989 270.975 63.5989C268.313 63.5989 265.711 62.7055 263.5 61.0324C261.444 59.2486 259.8 56.9307 258.708 54.276C257.431 51.0979 256.559 47.7312 256.121 44.2767C255.591 40.2871 255.335 36.2575 255.354 32.2235C255.346 28.2037 255.634 24.1901 256.217 20.2243C256.705 16.8042 257.608 13.476 258.9 10.333C260.004 7.59554 261.642 5.17496 263.692 3.25243C265.793 1.44581 268.382 0.510566 271.023 0.60397C273.679 0.511297 276.283 1.44582 278.403 3.25243C280.464 5.16293 282.104 7.58665 283.194 10.333C284.474 13.5669 285.345 16.9875 285.782 20.4945C286.364 24.3894 286.684 28.3283 286.74 32.2775ZM278.978 32.2775C278.978 29.7552 278.882 27.1607 278.69 24.4943C278.57 22.1111 278.201 19.7524 277.588 17.4677C277.13 15.4983 276.314 13.6578 275.192 12.0627C274.7 11.4244 274.087 10.9185 273.399 10.5818C272.711 10.2451 271.964 10.0863 271.215 10.1168C270.455 10.0822 269.698 10.2333 268.995 10.5598C268.292 10.8864 267.66 11.3806 267.142 12.0086C265.986 13.4804 265.12 15.2121 264.602 17.0894C263.991 19.4031 263.558 21.7721 263.308 24.17C263.06 26.7912 262.932 29.4252 262.925 32.0613C262.925 34.9801 262.925 37.4664 263.261 40.2229C263.395 42.5423 263.798 44.8318 264.459 47.0333C264.952 48.783 265.806 50.376 266.95 51.6817C268.124 52.8512 269.65 53.47 271.215 53.4113C271.952 53.4368 272.686 53.2807 273.364 52.954C274.043 52.6273 274.65 52.1378 275.144 51.5195C276.253 50.1482 277.058 48.4995 277.492 46.709C278.098 44.4914 278.5 42.2092 278.69 39.8987C278.882 37.6285 278.978 35.0341 278.978 32.3856L278.978 32.2775Z" fill="#93BA1F"/>
<path d="M300.345 31.9533C300.33 34.8073 300.474 37.6596 300.777 40.4932C300.988 42.7548 301.472 44.9732 302.214 47.0874C302.814 48.7335 303.749 50.1966 304.945 51.3574C306.168 52.4492 307.7 53.0059 309.258 52.9248C310.89 52.934 312.512 52.6231 314.05 52.006C315.723 51.31 317.329 50.4226 318.842 49.3575L320.471 58.3839C318.853 59.9446 317.004 61.1706 315.008 62.0053C312.896 62.911 310.655 63.3691 308.395 63.3566C305.776 63.4521 303.196 62.6205 301.016 60.9784C298.931 59.3641 297.275 57.1408 296.224 54.5464C294.955 51.4821 294.099 48.221 293.685 44.8713C293.189 40.8782 292.949 36.8501 292.966 32.8181C292.971 29.2035 293.179 25.5929 293.589 22.008C293.983 18.4108 294.788 14.8862 295.985 11.5222C297.045 8.50862 298.681 5.79575 300.777 3.5768C302.988 1.41167 305.854 0.289171 308.779 0.441863C310.388 0.440048 311.993 0.621143 313.571 0.98238C315.439 1.44414 317.222 2.26704 318.842 3.41465L317.452 13.0897C316.155 12.2729 314.746 11.7065 313.283 11.4141C312.142 11.2076 310.989 11.0992 309.833 11.0898C308.34 11.1032 306.886 11.627 305.663 12.592C304.439 13.557 303.504 14.9178 302.981 16.4948C301.099 21.3642 300.199 26.644 300.345 31.9533Z" fill="#93BA1F"/>
<path d="M334.031 11.5221L322.435 11.5221L322.435 1.73895L353.006 1.73895L353.006 11.5221L341.458 11.5221L341.458 62.5457L334.031 62.5457L334.031 11.5221Z" fill="#93BA1F"/>
<path d="M393.884 1.84721C395.444 1.74788 397.001 2.08007 398.421 2.81486C399.841 3.54966 401.08 4.66477 402.03 6.06314C404.029 9.42379 405.005 13.4268 404.809 17.4678C404.792 19.7711 404.502 22.0614 403.947 24.2782C403.377 26.5941 402.23 28.6766 400.64 30.2777C401.684 31.0225 402.568 32.0194 403.228 33.1965C403.885 34.3909 404.431 35.6588 404.857 36.98C405.252 38.3328 405.525 39.7272 405.672 41.1419C405.672 42.6013 405.672 43.9525 405.672 45.1957C405.701 47.6091 405.41 50.0139 404.809 52.3303C404.311 54.2721 403.516 56.1012 402.461 57.7354C401.529 59.1386 400.356 60.3152 399.011 61.1946C397.721 62.0027 396.27 62.4303 394.795 62.4378L376.346 62.4378L376.346 1.84721L393.884 1.84721ZM383.965 11.0358L383.965 27.2509L391.872 27.2509C392.668 27.2762 393.458 27.0769 394.169 26.671C394.88 26.2652 395.491 25.6657 395.945 24.9268C396.963 23.1833 397.466 21.121 397.382 19.0353C397.469 16.9811 397.001 14.9456 396.04 13.1978C395.514 12.4325 394.826 11.8286 394.039 11.4414C393.252 11.0542 392.391 10.8962 391.536 10.9817L383.965 11.0358ZM383.965 34.9801L383.965 53.5735L392.303 53.5735C393.265 53.6979 394.237 53.4907 395.093 52.9794C395.948 52.468 396.646 51.6764 397.095 50.7088C398.068 48.7453 398.564 46.5263 398.532 44.2768C398.572 42.0461 398.04 39.8499 396.999 37.9529C396.536 37.0054 395.832 36.2361 394.978 35.7447C394.124 35.2532 393.159 35.0622 392.207 35.1963L383.965 34.9801Z" fill="#93BA1F"/>
<path d="M443.097 32.2773C443.097 36.205 442.825 40.1266 442.282 44.0063C441.815 47.484 440.911 50.8691 439.599 54.0597C438.522 56.7849 436.878 59.1768 434.807 61.0322C432.606 62.7075 430.011 63.6027 427.356 63.6027C424.7 63.6027 422.106 62.7075 419.905 61.0322C417.848 59.2484 416.204 56.9305 415.113 54.2759C413.835 51.0977 412.964 47.731 412.525 44.2765C411.979 40.2884 411.707 36.2587 411.711 32.2233C411.694 28.2008 411.999 24.1849 412.621 20.2241C413.095 16.8066 413.981 13.4785 415.257 10.3329C416.373 7.60384 418.009 5.18618 420.048 3.25224C422.157 1.46122 424.741 0.527782 427.38 0.603782C430.036 0.502288 432.643 1.43772 434.759 3.25224C436.818 5.16548 438.457 7.58847 439.551 10.3329C440.831 13.5667 441.702 16.9873 442.138 20.4944C442.697 24.3926 443.017 28.3295 443.097 32.2773ZM435.334 32.2773C435.334 29.755 435.238 27.1606 435.047 24.4941C434.88 22.1174 434.511 19.7644 433.944 17.4675C433.486 15.4981 432.67 13.6576 431.549 12.0625C431.026 11.4544 430.4 10.971 429.709 10.6409C429.017 10.3107 428.274 10.1406 427.523 10.1406C426.773 10.1406 426.029 10.3107 425.338 10.6409C424.647 10.971 424.021 11.4544 423.498 12.0625C422.326 13.521 421.459 15.257 420.959 17.1432C420.302 19.4438 419.868 21.8178 419.665 24.2238C419.417 26.8451 419.289 29.479 419.282 32.1152C419.282 35.0339 419.282 37.5202 419.569 40.2768C419.751 42.5887 420.153 44.8719 420.767 47.0872C421.278 48.8404 422.148 50.433 423.307 51.7355C424.461 52.9066 425.972 53.5266 427.523 53.4651C428.269 53.4986 429.012 53.3464 429.699 53.0195C430.386 52.6925 431.002 52.1988 431.501 51.5733C432.593 50.1884 433.395 48.5444 433.849 46.7629C434.46 44.5495 434.846 42.2646 434.999 39.9525C435.223 37.4381 435.335 34.9126 435.334 32.3855L435.334 32.2773Z" fill="#93BA1F"/>
<path d="M470.453 62.5457L470.453 11.4139L460.869 11.4139L460.869 18.1162L460.15 36.2231C459.976 41.0357 459.463 45.8252 458.617 50.5465C458.025 54.1337 456.838 57.5627 455.119 60.6539C453.563 63.2251 451.284 65.1294 448.65 66.0589L446.733 56.8704C448.42 55.7424 449.835 54.1648 450.854 52.2761C451.9 50.0256 452.612 47.5973 452.963 45.0874C453.513 41.3695 453.834 37.6129 453.921 33.8448C453.921 29.3587 454.256 23.7915 454.448 17.2514L454.879 1.52267L477.88 1.52267L477.88 62.5457L470.453 62.5457Z" fill="#93BA1F"/>
<path d="M516.169 32.2774C516.177 36.2076 515.889 40.1314 515.306 44.0063C514.839 47.4841 513.936 50.8691 512.623 54.0597C511.55 56.7871 509.905 59.1799 507.831 61.0322C505.62 62.7053 503.018 63.5987 500.356 63.5987C497.694 63.5987 495.092 62.7053 492.881 61.0322C490.837 59.2336 489.196 56.9195 488.089 54.2759C486.811 51.0978 485.94 47.731 485.501 44.2766C484.972 40.287 484.716 36.2573 484.735 32.2233C484.726 28.2035 485.015 24.1899 485.597 20.2241C486.101 16.8014 487.02 13.4731 488.329 10.3329C489.429 7.59346 491.068 5.17221 493.12 3.25229C495.269 1.52999 497.84 0.604674 500.476 0.604675C503.112 0.604675 505.682 1.52999 507.831 3.25229C509.907 5.14715 511.55 7.57505 512.623 10.3329C513.927 13.5271 514.83 16.9108 515.306 20.3863C515.861 24.3195 516.149 28.2947 516.169 32.2774ZM508.358 32.2774C508.358 29.737 508.358 27.1426 508.119 24.4941C507.961 22.1121 507.575 19.7562 506.969 17.4676C506.531 15.4894 505.713 13.644 504.573 12.0625C504.08 11.4243 503.468 10.9183 502.779 10.5816C502.091 10.245 501.345 10.0861 500.596 10.1167C499.837 10.0891 499.081 10.2434 498.379 10.5695C497.677 10.8956 497.044 11.3861 496.523 12.0085C495.365 13.4701 494.513 15.2065 494.031 17.0892C493.374 19.3898 492.94 21.7638 492.737 24.1698C492.465 26.7888 492.337 29.4243 492.354 32.0612C492.354 34.9799 492.354 37.4662 492.641 40.2228C492.799 42.5386 493.201 44.8249 493.839 47.0332C494.331 48.7964 495.203 50.3938 496.379 51.6815C497.53 52.8575 499.044 53.4784 500.596 53.4111C501.34 53.4373 502.081 53.2818 502.767 52.9553C503.454 52.6288 504.07 52.139 504.573 51.5194C505.647 50.1204 506.447 48.4811 506.921 46.7089C507.509 44.489 507.895 42.207 508.071 39.8985C508.262 37.6284 508.358 35.034 508.358 32.3855L508.358 32.2774Z" fill="#93BA1F"/>
<path d="M529.683 31.954C529.668 34.808 529.812 37.6603 530.114 40.494C530.34 42.7583 530.84 44.977 531.6 47.0881C532.198 48.7932 533.191 50.2862 534.475 51.4122C535.677 52.5092 537.195 53.0674 538.739 52.9796C540.372 52.9888 541.993 52.6779 543.531 52.0608C545.204 51.3648 546.81 50.4774 548.323 49.4123L550 58.4387C548.225 60.033 546.213 61.2592 544.058 62.0601C541.963 62.9652 539.737 63.4234 537.493 63.4114C534.858 63.5146 532.26 62.6828 530.066 61.0331C528.008 59.3865 526.358 57.172 525.275 54.6011C524.005 51.5369 523.149 48.2758 522.735 44.9261C522.239 40.933 521.999 36.9048 522.016 32.8728C522.021 29.2582 522.229 25.6476 522.639 22.0627C523.033 18.4655 523.838 14.941 525.035 11.577C526.084 8.55655 527.721 5.84101 529.827 3.63154C532.019 1.46483 534.87 0.341117 537.781 0.496622C539.39 0.494807 540.996 0.675881 542.573 1.03712C544.441 1.49888 546.224 2.32178 547.844 3.46939L546.454 13.1444C545.157 12.3276 543.748 11.7613 542.285 11.4689C541.144 11.2623 539.991 11.1539 538.835 11.1446C537.344 11.1654 535.893 11.6921 534.671 12.6561C533.449 13.6201 532.512 14.9768 531.983 16.5496C530.223 21.4316 529.438 26.691 529.683 31.954Z" fill="#93BA1F"/>
</svg>
