<svg width="135" height="41" viewBox="0 0 135 41" fill="none" xmlns="http://www.w3.org/2000/svg">
<path fill-rule="evenodd" clip-rule="evenodd" d="M135 30.6985C135.001 29.3445 134.755 28.0016 134.275 26.7355C133.826 25.5553 133.132 24.4835 132.239 23.5907C131.346 22.6978 130.275 22.0041 129.094 21.5552C127.79 21.0618 126.405 20.8159 125.011 20.8299C123.619 20.8153 122.237 21.0613 120.935 21.5552C119.755 22.0041 118.684 22.6986 117.793 23.5928C116.904 24.49 116.212 25.5635 115.764 26.7442C115.291 28.0119 115.048 29.354 115.047 30.7072L117.534 30.7072C117.517 29.342 117.834 27.9934 118.457 26.7787C119.042 25.6648 119.943 24.7486 121.048 24.1454C122.269 23.5061 123.632 23.1854 125.011 23.2129C126.383 23.1864 127.741 23.5072 128.956 24.1454C130.06 24.7534 130.96 25.672 131.546 26.7874C132.165 27.9976 132.482 29.3394 132.47 30.6985L135 30.6985Z" fill="#93BA1F"/>
<path fill-rule="evenodd" clip-rule="evenodd" d="M115.056 31.3719C115.091 32.5825 115.327 33.7788 115.755 34.9119C116.201 36.0937 116.894 37.167 117.787 38.0603C118.68 38.9535 119.753 39.6462 120.935 40.0922C122.237 40.5861 123.619 40.8321 125.011 40.8175C126.402 40.8304 127.784 40.5845 129.086 40.0922C130.267 39.6402 131.34 38.9462 132.237 38.0546C133.132 37.1634 133.826 36.0921 134.275 34.9119C134.711 33.7803 134.956 32.584 135 31.3719L132.462 31.3719C132.417 32.5758 132.107 33.755 131.555 34.8255C130.965 35.9244 130.064 36.8253 128.965 37.4157C127.74 38.0656 126.371 38.3925 124.985 38.3654C123.618 38.4114 122.262 38.1146 121.039 37.502C119.942 36.9091 119.042 36.0089 118.449 34.9119C117.889 33.8284 117.576 32.6341 117.534 31.4151L115.056 31.3719Z" fill="#93BA1F"/>
<path fill-rule="evenodd" clip-rule="evenodd" d="M114.374 30.6986C114.374 29.3446 114.128 28.0017 113.648 26.7356C113.203 25.5532 112.511 24.4794 111.618 23.586C110.724 22.6927 109.65 22.0003 108.468 21.5553C105.834 20.5883 102.943 20.5883 100.309 21.5553C99.1288 22.0041 98.0575 22.6987 97.1661 23.5929C96.2771 24.4901 95.5859 25.5636 95.1372 26.7443C94.664 28.012 94.4213 29.3541 94.4205 30.7072L96.9071 30.7072C96.8906 29.3421 97.2077 27.9935 97.8309 26.7788C98.4133 25.663 99.3151 24.7461 100.421 24.1455C101.643 23.5062 103.006 23.1854 104.384 23.213C105.769 23.1833 107.139 23.5072 108.364 24.1541C109.468 24.7621 110.368 25.6807 110.954 26.7961C111.573 28.0063 111.89 29.3481 111.878 30.7072L114.374 30.6986Z" fill="#93BA1F"/>
<path fill-rule="evenodd" clip-rule="evenodd" d="M94.4209 31.3719C94.4631 32.5825 94.7022 33.7782 95.1289 34.9119C95.5749 36.0937 96.2676 37.167 97.1608 38.0603C98.054 38.9535 99.1273 39.6462 100.309 40.0922C102.943 41.0591 105.835 41.0591 108.468 40.0922C109.651 39.6384 110.727 38.9446 111.628 38.0546C112.514 37.1599 113.203 36.0893 113.649 34.9119C114.08 33.7853 114.323 32.5949 114.365 31.3892L111.835 31.3892C111.791 32.593 111.481 33.7722 110.929 34.8428C110.339 35.9417 109.438 36.8425 108.339 37.433C107.114 38.0829 105.744 38.4097 104.359 38.3827C102.99 38.4233 101.634 38.1205 100.413 37.502C99.3139 36.9116 98.4131 36.0108 97.8226 34.9119C97.2624 33.8284 96.9498 32.6341 96.9074 31.4151L94.4209 31.3719Z" fill="#93BA1F"/>
<path d="M76.4531 21.7192L76.4531 7.99988L73.9925 7.99988L73.9925 21.7192L76.4531 21.7192Z" fill="#93BA1F"/>
<path fill-rule="evenodd" clip-rule="evenodd" d="M73.9923 40.1526L76.453 40.1526L76.453 36.8199C77.2651 38.0078 78.36 38.975 79.6389 39.6345C80.9547 40.2533 82.3991 40.5492 83.8523 40.4979C85.2285 40.5139 86.5958 40.2738 87.8843 39.7899C89.0383 39.3569 90.0884 38.6863 90.9666 37.8214C91.8572 36.9438 92.5465 35.8833 92.9869 34.7132C93.9425 32.1368 93.9425 29.3032 92.9869 26.7268C92.5416 25.5642 91.8528 24.5103 90.9666 23.6359C90.0768 22.7564 89.0119 22.0739 87.8411 21.6328C86.5515 21.153 85.185 20.913 83.8091 20.9248C82.3652 20.8674 80.9302 21.1752 79.6368 21.8196C78.3435 22.464 77.2336 23.4243 76.4098 24.6115L76.4098 22.3926L73.9491 22.3926L73.9491 30.6984L76.453 30.6984C76.4142 29.3324 76.7107 27.9777 77.3164 26.7527C77.8884 25.6578 78.7716 24.7565 79.8548 24.1625C81.0699 23.5425 82.4147 23.2193 83.7789 23.2193C85.1431 23.2193 86.4878 23.5425 87.703 24.1625C88.7986 24.7575 89.6983 25.6571 90.2932 26.7527C90.9195 27.9722 91.2339 29.3278 91.2084 30.6984C91.235 32.0692 90.9205 33.4251 90.2932 34.6441C89.6979 35.7394 88.7983 36.639 87.703 37.2343C86.4841 37.8417 85.1408 38.1579 83.7789 38.1579C82.417 38.1579 81.0737 37.8417 79.8547 37.2343C78.7693 36.6432 77.8854 35.7412 77.3164 34.6441C76.7969 33.6157 76.5025 32.4884 76.453 31.3373L73.975 31.3373L73.9923 40.1526Z" fill="#93BA1F"/>
<path d="M57.269 40.1525L57.269 34.2383L55.0588 34.2383L55.0588 40.1525L57.269 40.1525Z" fill="#93BA1F"/>
<path d="M72.2139 40.1525L72.2139 34.2383L69.7532 34.2383L69.7532 40.1525L72.2139 40.1525Z" fill="#93BA1F"/>
<path fill-rule="evenodd" clip-rule="evenodd" d="M42.5304 33.5563L42.5304 29.5243C42.5235 28.6677 42.7074 27.8204 43.0688 27.0438C43.4302 26.2672 43.96 25.5808 44.6198 25.0346C45.3058 24.4697 46.0903 24.0365 46.9337 23.7568C47.8792 23.4522 48.8673 23.3006 49.8606 23.3078C50.7194 23.2887 51.5751 23.4172 52.3904 23.6877C53.0248 23.9039 53.5807 24.3036 53.9877 24.836C54.4231 25.4203 54.7185 26.0967 54.851 26.8132C55.0306 27.7548 55.1116 28.7126 55.0928 29.671L55.0928 33.5649L57.2944 33.5649L57.2944 29.5243C57.2904 28.6506 57.479 27.7869 57.847 26.9945C58.2092 26.2363 58.7339 25.5672 59.3839 25.0346C60.0713 24.4671 60.8591 24.0337 61.7064 23.7568C62.6489 23.4522 63.6342 23.3007 64.6246 23.3078C65.4747 23.2928 66.3212 23.4213 67.1285 23.6877C67.7547 23.9105 68.3033 24.3092 68.7085 24.836C69.1258 25.4249 69.4033 26.101 69.5201 26.8132C69.7041 27.7542 69.7851 28.7125 69.7618 29.671L69.7618 33.5649L72.2139 33.5649L72.2139 28.0824C72.2139 25.6994 71.644 23.9467 70.4871 22.7984C69.3301 21.6501 67.5084 21.0716 65.0391 21.0716C63.497 21.0505 61.9704 21.3812 60.5753 22.0386C59.2365 22.6985 58.0824 23.6805 57.2167 24.8965C56.7368 23.6787 55.8487 22.6654 54.7043 22.03C53.3316 21.3554 51.8119 21.0348 50.2837 21.0975C48.7444 21.0762 47.2206 21.407 45.8286 22.0645C44.4872 22.7241 43.3302 23.706 42.4614 24.9224L42.4614 21.4688L40.1129 21.4688L40.1129 33.5563L42.5304 33.5563Z" fill="#93BA1F"/>
<path d="M42.5303 40.1525L42.5303 34.2383L40.1128 34.2383L40.1128 40.1525L42.5303 40.1525Z" fill="#93BA1F"/>
<path fill-rule="evenodd" clip-rule="evenodd" d="M35.183 30.0512L35.183 32.5723C35.1857 32.9024 35.1568 33.2319 35.0967 33.5565L37.6437 33.5565L37.6437 27.8409C37.6437 27.202 37.6437 26.6235 37.5832 26.1141C37.5464 25.6033 37.4478 25.0989 37.2897 24.6118C37.1277 24.1251 36.8791 23.6718 36.5558 23.2735C35.8678 22.4384 34.9393 21.8355 33.8966 21.5467C32.5244 21.1733 31.1047 21.0046 29.6832 21.046C26.8858 21.046 24.759 21.5928 23.3027 22.6864C22.5594 23.2738 21.9583 24.0215 21.5442 24.8736C21.1301 25.7257 20.9137 26.6603 20.9111 27.6078L23.3286 27.6078C23.3338 26.9575 23.5006 26.3187 23.8141 25.749C24.1276 25.1793 24.5779 24.6965 25.1245 24.3441C26.6111 23.5256 28.3004 23.1482 29.994 23.2563C31.3309 23.1751 32.6654 23.4491 33.862 24.0506C34.2738 24.2818 34.6145 24.6212 34.8474 25.0321C35.0802 25.443 35.1963 25.9097 35.183 26.3817C35.2164 26.8815 35.0861 27.3786 34.8118 27.7977C34.5067 28.1591 34.096 28.4157 33.6375 28.5316C32.9763 28.7178 32.3004 28.8478 31.6172 28.9201C30.7538 29.0151 29.8214 29.1446 28.6989 29.2914C27.5765 29.4381 26.739 29.5677 25.9016 29.7144C25.1532 29.8412 24.4147 30.0201 23.6913 30.2497C23.112 30.4281 22.5643 30.6961 22.0681 31.0441C21.4509 31.4974 20.9483 32.0887 20.6003 32.7708C20.2569 33.4778 20.0853 34.2558 20.0996 35.0416C20.082 36.1067 20.3826 37.1529 20.9629 38.0462C21.5423 38.9099 22.3747 39.5734 23.3459 39.9456C24.5851 40.4197 25.9047 40.6484 27.2312 40.6191C28.282 40.6273 29.3304 40.5173 30.3567 40.291C31.2685 40.0735 32.1419 39.7183 32.9468 39.2376C33.7912 38.7137 34.5534 38.0678 35.2089 37.3209C35.2089 37.5368 35.2089 39.9715 35.2089 40.1615L37.6782 40.1615L37.6782 34.2386L34.9585 34.2386C34.8741 34.4812 34.7731 34.7178 34.6563 34.9466C34.2676 35.6735 33.7184 36.3024 33.0504 36.7856C32.2888 37.3315 31.4347 37.7352 30.5293 37.9771C29.5013 38.267 28.4374 38.4094 27.3693 38.4002C26.487 38.4128 25.6097 38.2665 24.7791 37.9685C24.1333 37.7422 23.5626 37.3418 23.1301 36.8115C22.7538 36.3156 22.556 35.7071 22.5689 35.0847C22.5223 34.5566 22.6476 34.0275 22.9261 33.5764C23.2046 33.1252 23.6214 32.776 24.1143 32.5809C24.7312 32.3052 25.377 32.0996 26.0397 31.9679C26.8168 31.8125 27.7147 31.6571 28.7421 31.5017C30.3394 31.2599 31.6776 31.0268 32.7569 30.8109C33.5944 30.661 34.4096 30.4057 35.183 30.0512Z" fill="#93BA1F"/>
<path d="M2.45215 21.7192L2.45215 7.99988L0.00011754 7.99988L0.000116941 21.7192L2.45215 21.7192Z" fill="#93BA1F"/>
<path fill-rule="evenodd" clip-rule="evenodd" d="M0.000266187 40.1526L2.4523 40.1526L2.4523 36.8199C3.26446 38.0078 4.35929 38.975 5.63822 39.6346C6.95708 40.2534 8.4043 40.5493 9.8602 40.498C11.2364 40.5131 12.6035 40.2731 13.8922 39.79C15.0621 39.3521 16.1248 38.6691 17.0091 37.7869C17.8996 36.9094 18.589 35.8488 19.0294 34.6787C19.985 32.1023 19.985 29.2687 19.0294 26.6923C18.5841 25.5297 17.8953 24.4758 17.0091 23.6014C16.1225 22.7221 15.0604 22.0395 13.8922 21.5983C12.6024 21.1192 11.2361 20.8793 9.8602 20.8903C8.4149 20.8315 6.97814 21.1385 5.68314 21.783C4.38814 22.4275 3.27684 23.3885 2.4523 24.577L2.4523 22.3926L0.000266963 22.3926L0.0002666 30.6985L2.4523 30.6985C2.4269 29.3289 2.73821 27.974 3.35886 26.7528C3.93583 25.6614 4.81778 24.7615 5.89724 24.1626C7.1135 23.5411 8.45984 23.2171 9.82567 23.2171C11.1915 23.2171 12.5379 23.5411 13.7541 24.1626C14.8524 24.7539 15.753 25.6545 16.3443 26.7528C16.9706 27.9722 17.2851 29.3278 17.2595 30.6985C17.2861 32.0692 16.9716 33.4251 16.3443 34.6442C15.7522 35.7419 14.8518 36.6423 13.7541 37.2344C12.5337 37.8419 11.189 38.1581 9.82567 38.1581C8.46238 38.1581 7.11767 37.8419 5.89724 37.2344C4.81562 36.6383 3.93295 35.7376 3.35886 34.6442C2.83531 33.6173 2.54074 32.4891 2.49547 31.3374L0.0175376 31.3374L0.000266187 40.1526Z" fill="#93BA1F"/>
<path d="M18.9102 3.03053L18.9431 3.83155C19.4656 3.20853 20.1702 2.89702 21.057 2.89702C22.0535 2.89702 22.7318 3.28418 23.0918 4.0585C23.3288 3.71139 23.6362 3.43104 24.0137 3.21743C24.3956 3.00383 24.8456 2.89702 25.3637 2.89702C26.9265 2.89702 27.7211 3.73587 27.7475 5.41356L27.7475 10.2531H26.5292L26.5292 5.48699C26.5292 4.97078 26.4129 4.58584 26.1802 4.33218C25.9475 4.07408 25.5568 3.94502 25.0081 3.94502C24.5559 3.94502 24.1805 4.08298 23.882 4.35888C23.5835 4.63034 23.4101 4.99748 23.3618 5.46029V10.2531L22.1369 10.2531V5.52036C22.1369 4.47014 21.6299 3.94502 20.6158 3.94502C19.8168 3.94502 19.2702 4.28991 18.9761 4.97968L18.9761 10.2531H17.7578L17.7578 3.03053L18.9102 3.03053Z" fill="#C5C5C7"/>
<path d="M29.2687 6.57504C29.2687 5.86747 29.4047 5.23111 29.6769 4.66594C29.9535 4.10078 30.3354 3.66467 30.8228 3.35761C31.3144 3.05055 31.8742 2.89702 32.502 2.89702C33.4722 2.89702 34.2558 3.23746 34.8529 3.91832C35.4543 4.59919 35.755 5.50479 35.755 6.63512V6.7219C35.755 7.42501 35.6211 8.05693 35.3533 8.61764C35.0899 9.17391 34.7102 9.60779 34.2141 9.9193C33.7224 10.2308 33.1561 10.3866 32.5151 10.3866C31.5493 10.3866 30.7657 10.0461 30.1642 9.36526C29.5672 8.68439 29.2687 7.78325 29.2687 6.66182V6.57504ZM30.4935 6.7219C30.4935 7.52292 30.6757 8.16596 31.0401 8.65102C31.4088 9.13608 31.9005 9.37861 32.5151 9.37861C33.1341 9.37861 33.6258 9.13386 33.9902 8.64434C34.3546 8.15038 34.5368 7.46061 34.5368 6.57504C34.5368 5.78292 34.3502 5.14211 33.977 4.65259C33.6083 4.15863 33.1166 3.91165 32.502 3.91165C31.9005 3.91165 31.4154 4.15418 31.0466 4.63924C30.6779 5.1243 30.4935 5.81852 30.4935 6.7219Z" fill="#C5C5C7"/>
<path d="M36.9865 6.58172C36.9865 5.47364 37.2455 4.58362 37.7635 3.91165C38.2815 3.23523 38.9598 2.89702 39.7983 2.89702C40.6324 2.89702 41.2931 3.18628 41.7804 3.7648V0L42.9987 5.39795e-08V10.2531H41.8792L41.82 9.47874C41.3326 10.084 40.6544 10.3866 39.7851 10.3866C38.9598 10.3866 38.2859 10.0439 37.7635 9.35859C37.2455 8.67327 36.9865 7.7788 36.9865 6.67517L36.9865 6.58172ZM38.2047 6.7219C38.2047 7.54072 38.3715 8.18153 38.7052 8.64434C39.0388 9.10716 39.4998 9.33856 40.0881 9.33856C40.8607 9.33856 41.4248 8.987 41.7804 8.28389V4.96633C41.4161 4.28546 40.8563 3.94502 40.1012 3.94502C39.5042 3.94502 39.0388 4.17866 38.7052 4.64592C38.3715 5.11318 38.2047 5.80517 38.2047 6.7219Z" fill="#C5C5C7"/>
<path d="M49.2941 9.53882C48.82 10.104 48.1241 10.3866 47.2066 10.3866C46.4471 10.3866 45.8676 10.1641 45.4681 9.71905C45.073 9.26959 44.8733 8.60652 44.8689 7.72985V3.03053H46.0871V7.69647C46.0871 8.7912 46.5261 9.33856 47.4042 9.33856C48.3349 9.33856 48.9539 8.987 49.2612 8.28389V3.03053H50.4794V10.2531H49.3204L49.2941 9.53882Z" fill="#C5C5C7"/>
<path d="M53.4823 3.03053L53.5152 3.83155C54.0376 3.20853 54.7422 2.89702 55.629 2.89702C56.6256 2.89702 57.3038 3.28418 57.6638 4.0585C57.9009 3.71139 58.2082 3.43104 58.5857 3.21743C58.9677 3.00383 59.4177 2.89702 59.9357 2.89702C61.4986 2.89702 62.2932 3.73587 62.3195 5.41356V10.2531H61.1013V5.48699C61.1013 4.97078 60.9849 4.58584 60.7523 4.33219C60.5196 4.07408 60.1289 3.94503 59.5801 3.94503C59.1279 3.94503 58.7526 4.08298 58.454 4.35889C58.1555 4.63034 57.9821 4.99748 57.9338 5.46029V10.2531H56.709V5.52037C56.709 4.47014 56.2019 3.94503 55.1878 3.94503C54.3888 3.94503 53.8422 4.28991 53.5481 4.97968V10.2531H52.3299V3.03053H53.4823Z" fill="#C5C5C7"/>
</svg>
