<svg width="165" height="546" viewBox="0 0 165 546" fill="none" xmlns="http://www.w3.org/2000/svg">
<path fill-rule="evenodd" clip-rule="evenodd" d="M124.093 4.21525e-06C118.62 -0.00236146 113.191 0.991041 108.074 2.93169C103.303 4.74635 98.9702 7.55053 95.361 11.1598C91.7517 14.769 88.9476 19.1015 87.1329 23.8723C85.1386 29.1451 84.1444 34.7434 84.2012 40.3805C84.1422 46.0064 85.1365 51.5937 87.1329 56.8538C88.9473 61.6242 91.7549 65.9546 95.3695 69.5578C98.9962 73.1517 103.336 75.9456 108.108 77.7596C113.233 79.6721 118.658 80.6531 124.128 80.6563V70.6048C118.61 70.6716 113.158 69.3897 108.248 66.8704C103.745 64.5062 100.042 60.8634 97.6032 56.4001C95.019 51.4624 93.7226 45.9525 93.8339 40.3805C93.7268 34.8313 95.0234 29.345 97.6032 24.4307C100.061 19.97 103.774 16.3293 108.283 13.9604C113.175 11.4601 118.599 10.1789 124.093 10.226V4.21525e-06Z" fill="#93BA1F"/>
<path fill-rule="evenodd" clip-rule="evenodd" d="M126.815 80.6214C131.709 80.479 136.545 79.5236 141.125 77.7944C145.902 75.9915 150.241 73.1915 153.852 69.5807C157.463 65.9699 160.263 61.6313 162.065 56.8538C164.062 51.5937 165.056 46.0064 164.997 40.3805C165.05 34.7552 164.056 29.1691 162.065 23.9072C160.238 19.1329 157.433 14.7937 153.829 11.1683C150.226 7.55287 145.896 4.74518 141.125 2.93169C136.551 1.16674 131.715 0.175949 126.815 0V10.2609C131.682 10.4413 136.448 11.6926 140.776 13.9255C145.218 16.3122 148.859 19.9537 151.246 24.3958C153.873 29.3452 155.195 34.8829 155.085 40.4852C155.271 46.0098 154.071 51.4929 151.595 56.435C149.199 60.8698 145.56 64.5087 141.125 66.9053C136.745 69.1698 131.917 70.4334 126.99 70.6048L126.815 80.6214Z" fill="#93BA1F"/>
<path fill-rule="evenodd" clip-rule="evenodd" d="M124.094 83.3791C118.62 83.3768 113.192 84.3702 108.074 86.3108C103.294 88.1098 98.9538 90.9085 95.3426 94.5198C91.7313 98.131 88.9326 102.472 87.1336 107.251C83.225 117.898 83.225 129.587 87.1336 140.233C88.9481 145.003 91.7556 149.334 95.3703 152.937C98.9969 156.531 103.336 159.325 108.109 161.139C113.234 163.051 118.659 164.032 124.129 164.035V153.984C118.61 154.051 113.159 152.769 108.249 150.25C103.738 147.896 100.032 144.25 97.6039 139.779C95.0198 134.842 93.7233 129.332 93.8346 123.76C93.7146 118.16 95.0239 112.623 97.6388 107.67C100.096 103.21 103.81 99.5688 108.319 97.1999C113.211 94.6996 118.635 93.4184 124.129 93.4655L124.094 83.3791Z" fill="#93BA1F"/>
<path fill-rule="evenodd" clip-rule="evenodd" d="M126.815 164.035C131.709 163.864 136.542 162.897 141.125 161.173C145.902 159.37 150.241 156.57 153.852 152.959C157.462 149.348 160.263 145.01 162.065 140.232C165.974 129.586 165.974 117.897 162.065 107.251C160.231 102.47 157.427 98.1207 153.829 94.4768C150.212 90.8955 145.884 88.1132 141.125 86.3099C136.571 84.5645 131.759 83.5856 126.885 83.4131V93.6392C131.752 93.8196 136.518 95.0708 140.846 97.3038C145.288 99.6905 148.929 103.332 151.316 107.774C153.943 112.723 155.264 118.261 155.155 123.863C155.319 129.394 154.095 134.877 151.595 139.813C149.208 144.255 145.567 147.897 141.125 150.284C136.745 152.548 131.917 153.812 126.99 153.983L126.815 164.035Z" fill="#93BA1F"/>
<path d="M87.7957 236.664H32.3379V246.611H87.7957V236.664Z" fill="#93BA1F"/>
<path fill-rule="evenodd" clip-rule="evenodd" d="M162.31 246.611V236.665H148.838C153.64 233.382 157.55 228.956 160.216 223.786C162.717 218.467 163.913 212.628 163.706 206.754C163.77 201.191 162.8 195.664 160.844 190.456C159.093 185.791 156.382 181.546 152.886 177.996C149.339 174.396 145.052 171.609 140.322 169.829C129.907 165.966 118.453 165.966 108.039 169.829C103.339 171.629 99.0787 174.414 95.5439 177.996C91.9887 181.593 89.2299 185.897 87.4469 190.63C85.5072 195.843 84.5373 201.367 84.585 206.929C84.3531 212.765 85.5971 218.566 88.2021 223.794C90.807 229.023 94.6886 233.509 99.4878 236.839H90.5182V246.786H124.093V236.665C118.571 236.821 113.095 235.623 108.143 233.174C103.717 230.862 100.074 227.292 97.6729 222.913C95.1666 218.001 93.8599 212.565 93.8599 207.051C93.8599 201.536 95.1666 196.1 97.6729 191.188C100.078 186.76 103.715 183.123 108.143 180.718C113.073 178.186 118.552 176.915 124.093 177.019C129.634 176.911 135.115 178.182 140.043 180.718C144.47 183.125 148.107 186.761 150.513 191.188C152.969 196.116 154.247 201.546 154.247 207.051C154.247 212.556 152.969 217.986 150.513 222.913C148.124 227.301 144.478 230.874 140.043 233.174C135.886 235.274 131.329 236.464 126.676 236.665V246.681L162.31 246.611Z" fill="#93BA1F"/>
<path d="M162.31 314.213H138.402V323.148H162.31V314.213Z" fill="#93BA1F"/>
<path d="M162.31 253.801H138.402V263.748H162.31V253.801Z" fill="#93BA1F"/>
<path fill-rule="evenodd" clip-rule="evenodd" d="M135.646 373.791H119.347C115.884 373.819 112.459 373.076 109.32 371.615C106.181 370.154 103.406 368.012 101.198 365.345C98.9147 362.572 97.1635 359.401 96.0329 355.992C94.8016 352.17 94.1889 348.175 94.218 344.16C94.1408 340.689 94.6602 337.23 95.7537 333.934C96.6276 331.37 98.2431 329.123 100.396 327.477C102.757 325.717 105.492 324.523 108.388 323.987C112.194 323.262 116.066 322.934 119.94 323.01H135.68V314.11H119.347C115.815 314.127 112.324 313.364 109.121 311.877C106.056 310.412 103.351 308.291 101.198 305.664C98.9042 302.885 97.1521 299.701 96.0329 296.276C94.8018 292.466 94.1891 288.483 94.218 284.479C94.1574 281.043 94.6766 277.621 95.7537 274.358C96.6542 271.827 98.2659 269.609 100.396 267.971C102.776 266.284 105.509 265.162 108.388 264.69C112.192 263.947 116.065 263.619 119.94 263.713H135.68V253.801H113.518C103.886 253.801 96.8007 256.105 92.1589 260.781C87.517 265.458 85.1787 272.822 85.1787 282.804C85.0932 289.038 86.43 295.209 89.0876 300.848C91.7548 306.26 95.7244 310.925 100.64 314.424C95.717 316.364 91.6211 319.954 89.0527 324.581C86.3255 330.129 85.0297 336.272 85.2834 342.45C85.1971 348.672 86.5341 354.832 89.1923 360.459C91.8584 365.881 95.8276 370.558 100.745 374.07H86.7841V383.563H135.646V373.791Z" fill="#93BA1F"/>
<path d="M162.31 373.791H138.402V383.563H162.31V373.791Z" fill="#93BA1F"/>
<path fill-rule="evenodd" clip-rule="evenodd" d="M121.476 403.492H131.667C133.002 403.481 134.334 403.598 135.646 403.841V393.545H112.542C109.959 393.545 107.621 393.545 105.561 393.789C103.497 393.938 101.458 394.337 99.4887 394.976C97.5214 395.631 95.6888 396.636 94.079 397.943C90.7033 400.724 88.2661 404.477 87.0988 408.692C85.5894 414.239 84.9072 419.978 85.0745 425.724C85.0745 437.032 87.2849 445.629 91.7057 451.516C94.0803 454.52 97.1025 456.95 100.547 458.624C103.992 460.298 107.77 461.173 111.599 461.183V451.411C108.971 451.39 106.389 450.716 104.086 449.448C101.783 448.181 99.831 446.361 98.4067 444.152C95.098 438.142 93.5725 431.313 94.0092 424.467C93.6811 419.063 94.7889 413.669 97.2201 408.832C98.1548 407.167 99.5267 405.79 101.188 404.849C102.849 403.907 104.735 403.438 106.643 403.492C108.664 403.357 110.673 403.884 112.367 404.993C113.828 406.226 114.865 407.886 115.334 409.739C116.086 412.412 116.612 415.144 116.904 417.906C117.288 421.396 117.812 425.165 118.405 429.702C118.998 434.24 119.522 437.625 120.115 441.01C120.628 444.035 121.351 447.021 122.279 449.945C123 452.286 124.084 454.5 125.49 456.507C127.322 459.001 129.713 461.033 132.47 462.44C135.328 463.828 138.473 464.521 141.649 464.464C145.955 464.535 150.184 463.32 153.795 460.974C157.286 458.632 159.968 455.267 161.473 451.341C163.389 446.332 164.314 440.998 164.195 435.636C164.229 431.388 163.784 427.15 162.869 423.001C161.99 419.315 160.554 415.785 158.611 412.531C156.493 409.118 153.882 406.037 150.863 403.387C151.736 403.387 161.578 403.387 162.345 403.387V393.405H138.403V404.399C139.384 404.741 140.34 405.149 141.265 405.621C144.204 407.192 146.746 409.412 148.699 412.112C150.906 415.191 152.538 418.644 153.515 422.303C154.687 426.459 155.263 430.76 155.226 435.077C155.277 438.644 154.686 442.19 153.481 445.548C152.566 448.158 150.947 450.465 148.804 452.214C146.799 453.735 144.34 454.534 141.824 454.482C139.689 454.67 137.55 454.164 135.726 453.038C133.903 451.912 132.491 450.228 131.702 448.235C130.588 445.741 129.757 443.131 129.224 440.452C128.596 437.311 127.968 433.681 127.34 429.528C126.362 423.071 125.42 417.662 124.548 413.299C123.941 409.914 122.909 406.618 121.476 403.492Z" fill="#93BA1F"/>
<path d="M87.7957 535.801H32.3379V545.713H87.7957V535.801Z" fill="#93BA1F"/>
<path fill-rule="evenodd" clip-rule="evenodd" d="M162.31 545.712V535.8H148.838C153.64 532.517 157.55 528.092 160.216 522.922C162.717 517.59 163.914 511.74 163.706 505.855C163.767 500.292 162.797 494.766 160.844 489.556C159.074 484.827 156.313 480.532 152.747 476.957C149.2 473.357 144.913 470.571 140.183 468.79C129.768 464.928 118.314 464.928 107.899 468.79C103.2 470.59 98.9395 473.375 95.4047 476.957C91.8502 480.541 89.0912 484.834 87.3076 489.556C85.371 494.77 84.4012 500.293 84.4457 505.855C84.2079 511.697 85.449 517.505 88.0542 522.74C90.6594 527.975 94.5443 532.467 99.3485 535.8H90.5185V545.712H124.093V535.8C118.557 535.903 113.08 534.644 108.144 532.136C103.732 529.803 100.094 526.238 97.6732 521.875C95.1611 516.958 93.8513 511.516 93.8513 505.995C93.8513 500.474 95.1611 495.031 97.6732 490.115C100.063 485.675 103.704 482.034 108.144 479.644C113.073 477.113 118.553 475.841 124.093 475.945C129.634 475.837 135.115 477.108 140.043 479.644C144.48 482.038 148.12 485.677 150.513 490.115C152.969 495.048 154.247 500.484 154.247 505.995C154.247 511.506 152.969 516.941 150.513 521.875C148.104 526.247 144.463 529.815 140.043 532.136C135.892 534.252 131.332 535.443 126.676 535.626V545.642L162.31 545.712Z" fill="#93BA1F"/>
<path d="M12.2503 469.272L15.4883 469.139C12.9699 467.027 11.7107 464.179 11.7107 460.594C11.7107 456.566 13.2757 453.824 16.4058 452.369C15.0026 451.411 13.8693 450.168 13.0059 448.642C12.1424 447.098 11.7107 445.279 11.7107 443.185C11.7107 436.868 15.1016 433.655 21.8833 433.549L41.4461 433.549L41.4461 438.474L22.1801 438.474C20.0934 438.474 18.5374 438.944 17.5121 439.884C16.4687 440.825 15.947 442.404 15.947 444.623C15.947 446.45 16.5047 447.968 17.62 449.175C18.7173 450.381 20.2014 451.082 22.0722 451.277L41.4461 451.277L41.4461 456.229L22.3151 456.229C18.0697 456.229 15.947 458.278 15.947 462.378C15.947 465.607 17.3412 467.817 20.1294 469.006L41.4461 469.006L41.4461 473.93L12.2503 473.93L12.2503 469.272Z" fill="#C5C5C7"/>
<path d="M26.5784 427.4C23.7182 427.4 21.1458 426.85 18.8612 425.75C16.5766 424.632 14.8137 423.088 13.5725 421.118C12.3313 419.13 11.7107 416.868 11.7107 414.33C11.7107 410.408 13.0868 407.24 15.8391 404.827C18.5914 402.396 22.2521 401.18 26.8212 401.18L27.172 401.18C30.0143 401.18 32.5687 401.721 34.8352 402.804C37.0838 403.869 38.8377 405.404 40.097 407.409C41.3562 409.396 41.9858 411.686 41.9858 414.277C41.9858 418.181 40.6096 421.348 37.8574 423.78C35.1051 426.193 31.4623 427.4 26.9292 427.4L26.5784 427.4ZM27.172 422.449C30.41 422.449 33.0094 421.712 34.9702 420.239C36.9309 418.749 37.9113 416.761 37.9113 414.277C37.9113 411.774 36.9219 409.787 34.9432 408.314C32.9464 406.841 30.1582 406.105 26.5784 406.105C23.3764 406.105 20.786 406.859 18.8073 408.367C16.8105 409.858 15.8121 411.845 15.8121 414.33C15.8121 416.761 16.7925 418.722 18.7533 420.213C20.7141 421.703 23.5203 422.449 27.172 422.449Z" fill="#C5C5C7"/>
<path d="M26.6054 396.202C22.1262 396.202 18.5284 395.155 15.8121 393.061C13.0778 390.967 11.7107 388.225 11.7107 384.836C11.7107 381.464 12.88 378.793 15.2185 376.823L-4.24469e-06 376.823L-4.24174e-06 371.899L41.4461 371.899L41.4461 376.424L38.3161 376.664C40.7625 378.633 41.9858 381.375 41.9858 384.889C41.9858 388.225 40.6006 390.949 37.8304 393.061C35.0601 395.155 31.4444 396.202 26.9831 396.202L26.6054 396.202ZM27.172 391.278C30.482 391.278 33.0723 390.603 34.9432 389.255C36.814 387.906 37.7494 386.042 37.7494 383.664C37.7494 380.541 36.3283 378.261 33.4861 376.823L20.0755 376.823C17.3232 378.296 15.947 380.559 15.947 383.611C15.947 386.025 16.8914 387.906 18.7803 389.255C20.6691 390.603 23.4663 391.278 27.172 391.278Z" fill="#C5C5C7"/>
<path d="M38.5589 346.451C40.8435 348.367 41.9858 351.18 41.9858 354.889C41.9858 357.959 41.0863 360.302 39.2875 361.917C37.4706 363.514 34.7903 364.321 31.2465 364.339L12.2503 364.339L12.2503 359.414L31.1116 359.414C35.5368 359.414 37.7494 357.64 37.7494 354.09C37.7494 350.328 36.3283 347.826 33.4861 346.584L12.2503 346.584L12.2503 341.659L41.4461 341.659L41.4461 346.344L38.5589 346.451Z" fill="#C5C5C7"/>
<path d="M12.2503 329.521L15.4883 329.388C12.9699 327.276 11.7107 324.428 11.7107 320.843C11.7107 316.815 13.2757 314.073 16.4057 312.618C15.0026 311.659 13.8693 310.417 13.0059 308.891C12.1424 307.347 11.7107 305.528 11.7107 303.434C11.7107 297.116 15.1016 293.904 21.8833 293.798L41.4461 293.798L41.4461 298.722L22.1801 298.722C20.0934 298.722 18.5374 299.193 17.5121 300.133C16.4687 301.074 15.947 302.653 15.947 304.871C15.947 306.699 16.5047 308.217 17.62 309.423C18.7173 310.63 20.2014 311.331 22.0722 311.526L41.4461 311.526L41.4461 316.477L22.3151 316.477C18.0697 316.477 15.947 318.527 15.947 322.627C15.947 325.856 17.3412 328.066 20.1294 329.255L41.4461 329.255L41.4461 334.179L12.2503 334.179L12.2503 329.521Z" fill="#C5C5C7"/>
</svg>
